<svg width="30" height="31" viewBox="0 0 30 31" fill="none" xmlns="http://www.w3.org/2000/svg">
<path d="M25 13C25 15.0711 20.5228 16.75 15 16.75C9.47715 16.75 5 15.0711 5 13M25 18C25 20.0711 20.5228 21.75 15 21.75C9.47715 21.75 5 20.0711 5 18M25 23C25 25.0711 20.5228 26.75 15 26.75C9.47715 26.75 5 25.0711 5 23M25 8C25 10.0711 20.5228 11.75 15 11.75C9.47715 11.75 5 10.0711 5 8C5 5.92893 9.47715 4.25 15 4.25C20.5228 4.25 25 5.92893 25 8Z" stroke="black" stroke-width="1.6" stroke-linecap="round"/>
</svg>
