<svg width="86" height="99" viewBox="0 0 86 99" fill="none" xmlns="http://www.w3.org/2000/svg"><path d="M63.579 59.16c4.06 2.345 9.17 5.11 9.905 10.465 5.355-1.435 13.3-3.115 11.27-7.875-2.52-10.92-8.365-20.615-12.67-30.94a11.267 11.267 0 0 1-.7-2.345c-.525-2.765.49-5.39.735-8.225-1.05.14-5.635.14-8.225 3.36-.07.105-.595-3.185 1.155-6.685-2.905-.875-25.585 9.03-33.18 28.665-.175-4.515 1.645-12.25 7.875-20.86 9.625-13.335 25.27-15.085 35.385-12.74-1.75-.77-1.995-1.26-6.02-2.66-2.345-.84-5.775-1.505-7.315-1.505-27.65-.105-45.57 16.24-47.04 45.045-1.12 21.91 22.61 36.61 47.53 36.68 8.61.035 14.28-3.85 18.935-7.385-25.445-3.64-37.275-11.97-25.515-34.195-1.295 2.485.35 6.86 7.875 11.2Zm4.83-24.01c.035.035.035.07.07.105 0-.035.035-.035.035-.07 2.205 4.515 4.235 8.645 6.265 12.775a19.112 19.112 0 0 1-2.1-.945c-5.11-2.73-7.245-8.085-4.27-11.865Z" fill="url(#a)"/><path d="M52.835 7.85c-3.675.455-7.21 1.4-10.535 2.765a54.5 54.5 0 0 0-14.63-5.46C30.155 3.93 36.105 3.37 39.01 3.37c6.16.945 8.505 1.645 13.825 4.48Z" fill="url(#b)"/><path d="M40.375 11.455c-.14.07-.245.105-.385.175a43.718 43.718 0 0 0-7.805 4.9c-4.62-1.26-9.485-1.89-14.525-1.89-1.12 0-2.24.035-3.36.105 3.325-3.36 12.32-7 16.45-7.21 3.395 1.05 5.04 1.505 9.625 3.92Z" fill="url(#c)"/><path d="M30.436 18.035c-.245.21-.49.42-.7.63-.245.245-.49.455-.736.7a43.286 43.286 0 0 0-4.095 4.655A55.914 55.914 0 0 0 3.73 30.915c2.1-5.215 11.025-13.685 14.98-14.42 1.715-.14 7.63.56 11.726 1.54Z" fill="url(#d)"/><path d="M23.82 25.525c-.315.49-.665.98-.945 1.47-.21.35-.42.665-.63 1.015a40.972 40.972 0 0 0-2.73 5.565C12.13 36.76 5.585 41.485.23 47.365.405 42.22 6.565 31.16 9.4 30.11c0 .035 6.93-3.57 14.42-4.585Z" fill="url(#e)"/><path d="M18.675 35.885c-.105.35-.21.665-.315 1.015-.105.35-.21.735-.315 1.085a44.39 44.39 0 0 0-1.015 4.865A56.108 56.108 0 0 0 2.89 65.11C1.175 60.105.825 53.035 4.57 45.895c.035-.07 8.54-7.385 14.105-10.01Z" fill="url(#f)"/><path d="M12.34 77.22c0 1.47.07 2.94.175 4.41-3.675-4.165-6.58-14.035-6.125-19.32 2.73-6.685 7-12.985 10.255-16.415-.035.315-.035.63-.07.945-.035.7-.07 1.4-.07 2.135 0 2.03.14 3.99.42 5.95A56.18 56.18 0 0 0 12.34 77.22Z" fill="url(#g)"/><path d="M28.16 93.425C22.98 90.94 17.38 85.2 14.3 76.45c0 0 .63-13.44 3.15-18.76 0 .07.035.105.035.175.14.7.315 1.365.49 2.03a41.01 41.01 0 0 0 6.37 13.3c.035 7.14 1.365 13.965 3.815 20.23Z" fill="url(#h)"/><path d="M46.115 98.045c-5.81-.35-12.04-4.2-17.08-8.155-1.785-3.045-2.905-10.325-3.36-14.98.07.07.14.175.21.245.385.455.77.91 1.19 1.365 3.01 3.395 6.58 6.3 10.57 8.54.14.07.245.14.385.21a54.434 54.434 0 0 0 8.085 12.775Z" fill="url(#i)"/><path d="M62.67 96.295C59.275 97.38 54.585 98.85 45.31 95c-3.01-3.57-3.115-4.375-5.18-8.61a40.773 40.773 0 0 0 13.16 3.78c.42.035.84.105 1.26.14a54.572 54.572 0 0 0 8.12 5.985Z" fill="url(#j)"/><path d="M73.835 10.65c-.875-.35-1.75-.7-2.66-.98-.28-.105-.56-.175-.84-.28C66.52 8.2 59.52 7.57 55.32 7.535 48.915 4.28 44.75 2.215 37.225 1.62 44.19.395 49.58 1.13 52.52 1.515c6.3.77 13.405 3.15 21.315 9.135Z" fill="url(#k)"/><path d="M80.45 83.87c-1.12 2.03-10.184 9.45-18.27 10.465-2.624-1.54-2.8-1.925-5.075-3.92h.946c1.33 0 2.624-.07 3.92-.175.105 0 .245-.035.35-.035 2.835-.28 5.564-.875 8.19-1.68.245-.07.455-.14.7-.21a37.462 37.462 0 0 0 2.764-1.05 42.276 42.276 0 0 0 6.476-3.395Z" fill="url(#l)"/><defs><linearGradient id="a" x1="-42.005" y1="119.368" x2="190.515" y2="-45.684" gradientUnits="userSpaceOnUse"><stop offset=".186"/><stop offset=".265"/><stop offset=".42"/><stop offset=".633"/><stop offset=".895"/><stop offset=".91"/></linearGradient><linearGradient id="b" x1="2.351" y1="97.291" x2="44.352" y2="-3.315" gradientUnits="userSpaceOnUse"><stop offset=".186"/><stop offset=".265"/><stop offset=".42"/><stop offset=".633"/><stop offset=".895"/><stop offset=".91"/></linearGradient><linearGradient id="c" x1="-6.302" y1="93.678" x2="35.698" y2="-6.927" gradientUnits="userSpaceOnUse"><stop offset=".186"/><stop offset=".265"/><stop offset=".42"/><stop offset=".633"/><stop offset=".895"/><stop offset=".91"/></linearGradient><linearGradient id="d" x1="-10.991" y1="91.721" x2="31.009" y2="-8.885" gradientUnits="userSpaceOnUse"><stop offset=".186"/><stop offset=".265"/><stop offset=".42"/><stop offset=".633"/><stop offset=".895"/><stop offset=".91"/></linearGradient><linearGradient id="e" x1="-11.426" y1="91.539" x2="30.574" y2="-9.066" gradientUnits="userSpaceOnUse"><stop offset=".186"/><stop offset=".265"/><stop offset=".42"/><stop offset=".633"/><stop offset=".895"/><stop offset=".91"/></linearGradient><linearGradient id="f" x1="-9.314" y1="92.421" x2="32.686" y2="-8.185" gradientUnits="userSpaceOnUse"><stop offset=".186"/><stop offset=".265"/><stop offset=".42"/><stop offset=".633"/><stop offset=".895"/><stop offset=".91"/></linearGradient><linearGradient id="g" x1="-.604" y1="96.057" x2="41.397" y2="-4.548" gradientUnits="userSpaceOnUse"><stop offset=".186"/><stop offset=".265"/><stop offset=".42"/><stop offset=".633"/><stop offset=".895"/><stop offset=".91"/></linearGradient><linearGradient id="h" x1="12.037" y1="101.335" x2="54.038" y2=".729" gradientUnits="userSpaceOnUse"><stop offset=".186"/><stop offset=".265"/><stop offset=".42"/><stop offset=".633"/><stop offset=".895"/><stop offset=".91"/></linearGradient><linearGradient id="i" x1="27.072" y1="107.611" x2="69.073" y2="7.006" gradientUnits="userSpaceOnUse"><stop offset=".186"/><stop offset=".265"/><stop offset=".42"/><stop offset=".633"/><stop offset=".895"/><stop offset=".91"/></linearGradient><linearGradient id="j" x1="42.005" y1="113.846" x2="84.006" y2="13.24" gradientUnits="userSpaceOnUse"><stop offset=".186"/><stop offset=".265"/><stop offset=".42"/><stop offset=".633"/><stop offset=".895"/><stop offset=".91"/></linearGradient><linearGradient id="k" x1="15.23" y1="102.668" x2="57.23" y2="2.062" gradientUnits="userSpaceOnUse"><stop offset=".186"/><stop offset=".265"/><stop offset=".42"/><stop offset=".633"/><stop offset=".895"/><stop offset=".91"/></linearGradient><linearGradient id="l" x1="55.311" y1="119.4" x2="97.312" y2="18.795" gradientUnits="userSpaceOnUse"><stop offset=".186"/><stop offset=".265"/><stop offset=".42"/><stop offset=".633"/><stop offset=".895"/><stop offset=".91"/></linearGradient></defs></svg>
