<svg width="171" height="200" viewBox="0 0 171 200" fill="none" xmlns="http://www.w3.org/2000/svg">
<path d="M80.2704 0.00212675C41.1213 0.352531 17.1844 43.3697 26.8043 96.0753C36.4241 148.785 75.9572 191.229 115.106 190.879C154.253 190.528 178.19 147.516 168.57 94.8054C158.95 42.0997 119.417 -0.346045 80.2704 0.00212675Z" fill="url(#paint0_linear_8_612)"/>
<path d="M33.4395 94.8902C37.8393 119.002 48.9088 141.612 64.6031 158.551C79.8696 175.034 97.62 184.109 114.589 184.109C114.731 184.109 114.867 184.105 115.01 184.105C124.114 184.024 132.462 181.278 139.624 176.081C142.765 173.8 145.679 171.046 148.33 167.841C162.032 151.26 167.118 124.4 161.934 95.9862C157.537 71.8743 146.469 49.2683 130.775 32.325C115.509 15.8472 97.7559 6.77185 80.7896 6.77185H80.3686C69.7112 6.86764 60.1008 10.6078 52.2036 17.6672C50.3902 19.2844 48.6704 21.0799 47.0486 23.0425C33.346 39.6227 28.2556 66.479 33.4395 94.8924V94.8902Z" fill="black" fill-opacity="0.13"/>
<path d="M33.4421 94.7238C37.8474 118.881 48.9311 141.533 64.6455 158.504C79.9316 175.017 97.7047 184.109 114.695 184.109C114.838 184.109 114.974 184.105 115.117 184.105C124.233 184.024 132.591 181.272 139.762 176.066C141.576 174.441 143.3 172.647 144.924 170.68C158.644 154.069 163.736 127.158 158.546 98.692C154.143 74.5351 143.061 51.887 127.347 34.9121C112.056 18.4036 94.2853 9.31128 77.2973 9.31128H76.8757C67.7594 9.39162 59.4014 12.1434 52.2301 17.3546C50.4145 18.9749 48.6925 20.7737 47.0686 22.7399C33.3484 39.3511 28.2515 66.2575 33.4421 94.7238Z" fill="url(#paint1_linear_8_612)"/>
<path d="M32.8627 118.611C33.1117 119.294 33.365 119.976 33.6229 120.652C33.7318 120.94 33.8429 121.226 33.9541 121.512C34.2186 122.19 34.4853 122.864 34.7587 123.533C34.8499 123.755 34.9365 123.976 35.0277 124.198C35.39 125.073 35.759 125.942 36.1368 126.807C36.2169 126.991 36.3013 127.174 36.3836 127.358C36.6881 128.045 36.9971 128.73 37.3105 129.411C37.4372 129.685 37.5661 129.958 37.6928 130.231C37.9884 130.86 38.2907 131.487 38.5952 132.11C38.7108 132.345 38.8242 132.582 38.9397 132.817C39.3554 133.655 39.7777 134.486 40.2067 135.312C40.2667 135.43 40.3312 135.543 40.3912 135.66C40.7646 136.372 41.1447 137.076 41.5293 137.779C41.6693 138.034 41.8116 138.289 41.9516 138.541C42.2806 139.131 42.6118 139.716 42.9496 140.299C43.0874 140.538 43.223 140.778 43.3631 141.015C43.8276 141.81 44.2988 142.599 44.779 143.382C45.1368 143.967 45.5014 144.545 45.8681 145.121C45.9615 145.268 46.0548 145.414 46.1482 145.56C46.4994 146.108 46.8528 146.655 47.2129 147.196C47.2329 147.225 47.2507 147.253 47.2707 147.282C47.6463 147.847 48.0242 148.406 48.4065 148.962C48.5043 149.104 48.6021 149.246 48.6999 149.388C49.0556 149.902 49.4134 150.414 49.7757 150.919C49.8091 150.965 49.8402 151.012 49.8735 151.056C50.2625 151.602 50.6582 152.14 51.0538 152.674C51.1539 152.809 51.2539 152.945 51.3561 153.08C51.7184 153.565 52.083 154.048 52.452 154.527C52.4942 154.582 52.5386 154.64 52.5809 154.695C52.9854 155.218 53.3944 155.735 53.8034 156.249C53.9079 156.38 54.0101 156.508 54.1146 156.637C54.4836 157.093 54.8525 157.548 55.226 157.995C55.2793 158.062 55.3349 158.128 55.3882 158.193C55.4505 158.266 55.5127 158.339 55.575 158.412L30.8111 167.179C30.7688 167.128 30.7266 167.075 30.6844 167.024C30.311 166.574 29.942 166.122 29.573 165.666C29.4685 165.537 29.3641 165.409 29.2618 165.278C28.8506 164.764 28.4438 164.247 28.0393 163.724C27.9971 163.669 27.9526 163.611 27.9104 163.556C27.5414 163.077 27.1769 162.594 26.8145 162.109C26.7145 161.973 26.6123 161.838 26.5123 161.703C26.1166 161.167 25.7209 160.628 25.332 160.085C25.2986 160.039 25.2675 159.992 25.2342 159.948C24.8718 159.44 24.514 158.931 24.1583 158.416C24.0605 158.275 23.9627 158.133 23.8649 157.993C23.4826 157.437 23.1025 156.876 22.7291 156.311C22.7091 156.282 22.6913 156.253 22.6713 156.225C22.3134 155.684 21.96 155.139 21.6088 154.591C21.5155 154.445 21.4221 154.299 21.3288 154.15C20.9642 153.576 20.6019 153 20.244 152.417C20.244 152.417 20.244 152.413 20.2418 152.413C19.7617 151.633 19.2927 150.841 18.8259 150.046C18.6859 149.809 18.5503 149.569 18.4125 149.33C18.0768 148.747 17.7434 148.162 17.4145 147.572C17.2722 147.318 17.1322 147.065 16.9921 146.81C16.6076 146.11 16.2275 145.403 15.8541 144.691C15.7941 144.576 15.7296 144.461 15.6696 144.343C15.2384 143.519 14.8183 142.686 14.4026 141.848C14.287 141.613 14.1737 141.378 14.0581 141.141C13.7536 140.518 13.4513 139.891 13.1556 139.262C13.0267 138.989 12.9 138.716 12.7733 138.444C12.4599 137.764 12.1487 137.079 11.8442 136.392C11.762 136.208 11.6797 136.026 11.5975 135.84C11.2196 134.976 10.8506 134.105 10.4883 133.231C10.3972 133.012 10.3105 132.788 10.2194 132.569C9.94596 131.897 9.67701 131.223 9.41249 130.545C9.30136 130.259 9.19022 129.974 9.08131 129.685C8.82346 129.007 8.57006 128.327 8.32111 127.644C8.27221 127.509 8.22331 127.374 8.17219 127.237L32.8249 118.507C32.8382 118.542 32.8494 118.576 32.8627 118.611Z" fill="#8A15E6"/>
<path d="M56.8814 159.565C56.9881 159.688 57.0926 159.811 57.1994 159.936C57.573 160.37 57.951 160.801 58.3291 161.228C58.3936 161.299 58.4558 161.373 58.5203 161.445C58.9518 161.927 59.3854 162.406 59.8235 162.877C59.9302 162.993 60.037 163.107 60.146 163.224C60.5285 163.633 60.911 164.039 61.2957 164.442C61.3691 164.518 61.4425 164.596 61.5158 164.672C61.9584 165.132 62.4054 165.586 62.8546 166.033C62.9636 166.142 63.0725 166.25 63.1815 166.357C63.5707 166.744 63.9598 167.126 64.3534 167.503C64.4335 167.582 64.5136 167.66 64.5958 167.738C65.0517 168.174 65.5098 168.603 65.968 169.03C66.0769 169.13 66.1859 169.229 66.2949 169.329C66.6907 169.691 67.0865 170.051 67.4868 170.404C67.5758 170.483 67.6647 170.563 67.7537 170.641C68.2185 171.052 68.6877 171.457 69.1569 171.855C69.2659 171.949 69.3749 172.038 69.486 172.132C69.8863 172.469 70.2911 172.805 70.6936 173.135C70.7892 173.214 70.8871 173.294 70.9827 173.372C71.4586 173.757 71.9345 174.137 72.4148 174.51C72.5238 174.595 72.6305 174.677 72.7395 174.76C73.1487 175.075 73.5579 175.386 73.9693 175.694C74.0716 175.77 74.1739 175.848 74.2784 175.924C74.7632 176.282 75.2502 176.635 75.7372 176.982C75.844 177.058 75.9485 177.131 76.0552 177.205C76.4711 177.498 76.8892 177.786 77.3073 178.07C77.4162 178.144 77.5252 178.22 77.6342 178.293C78.1279 178.624 78.6215 178.95 79.1175 179.268C79.222 179.335 79.3265 179.4 79.431 179.467C79.8535 179.735 80.2783 180.001 80.703 180.26C80.8165 180.329 80.9321 180.401 81.0455 180.47C81.5459 180.774 82.0485 181.071 82.5533 181.362C82.6534 181.42 82.7534 181.476 82.8535 181.534C83.2849 181.78 83.7163 182.021 84.15 182.258C84.2701 182.323 84.3879 182.39 84.508 182.453C85.0151 182.727 85.5243 182.996 86.0358 183.257C86.1314 183.306 86.2293 183.353 86.3249 183.402C86.7652 183.626 87.2055 183.843 87.6458 184.055C87.7682 184.115 87.8905 184.173 88.015 184.231C88.5309 184.477 89.0469 184.716 89.5628 184.947C89.6517 184.987 89.7429 185.025 89.8319 185.065C90.2811 185.264 90.7303 185.456 91.1817 185.646C91.3085 185.7 91.4353 185.753 91.562 185.805C92.0824 186.019 92.605 186.227 93.1276 186.428C93.2121 186.46 93.2944 186.491 93.3789 186.522C93.837 186.697 94.2951 186.864 94.7532 187.027C94.8822 187.074 95.0134 187.119 95.1424 187.166C95.6672 187.349 96.1943 187.526 96.7213 187.696C96.7969 187.72 96.8703 187.742 96.9459 187.765C97.4129 187.912 97.8821 188.053 98.3514 188.192C98.4848 188.23 98.616 188.27 98.7494 188.306C99.2809 188.455 99.8102 188.601 100.344 188.737C100.408 188.753 100.473 188.768 100.535 188.784C101.016 188.905 101.494 189.019 101.976 189.128C102.112 189.159 102.245 189.188 102.381 189.22C102.861 189.325 103.344 189.425 103.824 189.519L78.6593 198.499C78.3814 198.441 78.1034 198.387 77.8276 198.327C77.692 198.298 77.5586 198.267 77.4229 198.235C76.9426 198.126 76.4622 198.012 75.9819 197.891C75.9174 197.875 75.8529 197.86 75.7906 197.844C75.2591 197.708 74.7276 197.563 74.1983 197.413C74.0649 197.375 73.9337 197.337 73.8003 197.299C73.3311 197.163 72.8618 197.019 72.3948 196.872C72.3214 196.847 72.2458 196.827 72.1702 196.803C71.6432 196.635 71.1161 196.456 70.5913 196.273C70.4601 196.228 70.3311 196.181 70.1999 196.134C69.7418 195.971 69.2837 195.804 68.8256 195.632C68.7411 195.6 68.6588 195.569 68.5743 195.538C68.0517 195.337 67.5313 195.129 67.0109 194.914C66.8842 194.861 66.7552 194.807 66.6284 194.756C66.1792 194.568 65.73 194.373 65.283 194.177C65.1918 194.136 65.1029 194.098 65.0117 194.058C64.4935 193.826 63.9776 193.587 63.4639 193.343C63.3416 193.285 63.2193 193.225 63.0948 193.167C62.6544 192.954 62.2119 192.735 61.7738 192.514C61.6782 192.465 61.5803 192.418 61.4847 192.369C60.9732 192.107 60.464 191.839 59.9569 191.564C59.8368 191.499 59.719 191.435 59.5989 191.37C59.1652 191.133 58.7338 190.891 58.3024 190.646C58.2023 190.587 58.1023 190.532 58.0022 190.474C57.4974 190.183 56.9948 189.886 56.4944 189.582C56.381 189.513 56.2654 189.441 56.152 189.372C55.7272 189.11 55.3025 188.847 54.8799 188.578C54.7754 188.511 54.6709 188.446 54.5664 188.379C54.0705 188.06 53.5768 187.736 53.0831 187.405C52.9741 187.331 52.8629 187.255 52.7539 187.182C52.3359 186.898 51.92 186.612 51.5042 186.319C51.3974 186.243 51.2907 186.169 51.1817 186.093C50.6947 185.747 50.2077 185.394 49.7229 185.036C49.6183 184.96 49.516 184.882 49.4137 184.804C49.0023 184.497 48.5954 184.187 48.1862 183.872C48.0772 183.787 47.9683 183.704 47.8593 183.619C47.3812 183.246 46.903 182.868 46.4294 182.484C46.3315 182.406 46.2359 182.325 46.1381 182.245C45.7333 181.914 45.3308 181.581 44.9305 181.243C44.8215 181.152 44.7104 181.06 44.6014 180.966C44.1322 180.566 43.6651 180.162 43.2004 179.753C43.1092 179.675 43.0202 179.592 42.9313 179.514C42.5332 179.161 42.1374 178.803 41.7438 178.441C41.6348 178.34 41.5236 178.242 41.4146 178.139C40.9543 177.715 40.4984 177.285 40.0425 176.85C39.9603 176.771 39.8802 176.691 39.7979 176.613C39.4065 176.235 39.0173 175.853 38.6282 175.469C38.5192 175.361 38.4102 175.254 38.3013 175.144C37.8521 174.695 37.4073 174.242 36.9625 173.783C36.8891 173.707 36.8158 173.629 36.7424 173.553C36.3576 173.151 35.9729 172.744 35.5926 172.335C35.4859 172.219 35.3769 172.105 35.2702 171.989C34.8343 171.515 34.3985 171.039 33.967 170.556C33.9025 170.485 33.8403 170.411 33.7758 170.339C33.3955 169.913 33.0197 169.481 32.6438 169.048C32.5371 168.925 32.4304 168.802 32.3258 168.677C31.9011 168.181 31.4808 167.682 31.0627 167.175C31.0516 167.161 31.0382 167.146 31.0271 167.132L55.8028 158.291C56.1609 158.72 56.5189 159.147 56.8792 159.57L56.8814 159.565Z" fill="#7717CA"/>
<path d="M104.13 189.524C104.184 189.533 104.237 189.543 104.29 189.554C104.781 189.647 105.271 189.733 105.762 189.814C105.897 189.837 106.033 189.859 106.168 189.88C106.705 189.963 107.24 190.043 107.777 190.11C107.817 190.115 107.855 190.119 107.893 190.124C108.396 190.187 108.9 190.242 109.406 190.291C109.544 190.305 109.679 190.319 109.817 190.33C110.356 190.377 110.896 190.423 111.435 190.454C111.455 190.454 111.477 190.454 111.497 190.457C112.019 190.488 112.541 190.509 113.062 190.522C113.2 190.527 113.335 190.529 113.473 190.534C114.014 190.545 114.556 190.552 115.095 190.547C121.022 190.493 126.597 189.436 131.758 187.495L107.251 196.715C102.09 198.656 96.5148 199.713 90.5884 199.767C90.0468 199.772 89.5052 199.767 88.9658 199.754C88.8282 199.751 88.6928 199.747 88.5552 199.742C88.0336 199.726 87.512 199.706 86.9903 199.677C86.9704 199.677 86.9482 199.677 86.9282 199.674C86.3888 199.643 85.8495 199.6 85.3101 199.55C85.1725 199.539 85.0371 199.525 84.8995 199.511C84.3956 199.462 83.8895 199.407 83.3857 199.344C83.3457 199.339 83.308 199.335 83.2702 199.33C82.7331 199.263 82.1959 199.183 81.661 199.1C81.5256 199.079 81.3902 199.057 81.2548 199.034C80.7643 198.953 80.2737 198.867 79.7832 198.774C79.7299 198.765 79.6767 198.756 79.6234 198.744C79.3659 198.695 79.1107 198.636 78.8532 198.584L103.971 189.493C104.024 189.504 104.077 189.515 104.13 189.527V189.524Z" fill="#54108E"/>
<path d="M62.3836 3.43824C62.2545 3.48934 62.1254 3.54489 61.9963 3.59821C61.7137 3.71375 61.4333 3.8315 61.1551 3.95148C61.0104 4.01369 60.8658 4.07813 60.7211 4.14256C60.4518 4.26254 60.1825 4.38474 59.9155 4.50916C59.7797 4.57359 59.644 4.63581 59.5082 4.70024C59.1966 4.8491 58.8873 5.00241 58.578 5.16016C58.4934 5.20237 58.4088 5.24237 58.3265 5.2868C57.937 5.48677 57.552 5.69117 57.1692 5.90225C57.0668 5.95779 56.9667 6.01556 56.8643 6.07333C56.5817 6.23108 56.299 6.39105 56.0208 6.55324C55.8873 6.63101 55.756 6.71099 55.6225 6.78876C55.371 6.93984 55.1217 7.09093 54.8725 7.24423C54.7389 7.32644 54.6054 7.41087 54.4741 7.4953C54.2093 7.66194 53.9489 7.83302 53.6885 8.00632C53.5817 8.07742 53.4726 8.14852 53.3636 8.21962C53.0008 8.46402 52.6381 8.71286 52.2798 8.96837C52.2263 9.00614 52.1729 9.04614 52.1195 9.08391C51.8146 9.30165 51.5119 9.52383 51.2115 9.75046C51.0935 9.83933 50.9756 9.93043 50.8577 10.0215C50.6195 10.2037 50.3836 10.3881 50.1499 10.5748C50.0253 10.6747 49.9007 10.7747 49.7761 10.8747C49.5424 11.0636 49.3087 11.2569 49.0772 11.4502C48.9637 11.5435 48.8525 11.639 48.739 11.7346C48.4452 11.9856 48.1537 12.2411 47.8643 12.4989C47.8198 12.5389 47.7753 12.5744 47.733 12.6144C47.4014 12.9121 47.0743 13.2143 46.7494 13.5231C46.6537 13.6142 46.558 13.7075 46.4623 13.7986C46.233 14.0186 46.0038 14.2408 45.7768 14.4652C45.6633 14.5785 45.5498 14.6918 45.4363 14.8073C45.2249 15.0206 45.0157 15.2362 44.8065 15.4539C44.6974 15.5672 44.5862 15.6827 44.4771 15.7983C44.2457 16.0449 44.0164 16.2937 43.7872 16.5448C43.7093 16.6315 43.6292 16.7159 43.5513 16.8025C43.2486 17.1403 42.9482 17.4824 42.6522 17.829C42.5854 17.9068 42.5209 17.9868 42.4541 18.0645C42.3273 18.2156 42.2004 18.3689 42.0735 18.52L17.9067 27.0874C17.9646 27.0185 18.0224 26.9496 18.0803 26.8808C18.3763 26.5342 18.6767 26.192 18.9794 25.8543C19.0573 25.7676 19.1374 25.6832 19.2153 25.5965C19.4445 25.3455 19.6738 25.0966 19.9052 24.85C20.0143 24.7345 20.1233 24.6212 20.2346 24.5056C20.4438 24.2879 20.653 24.0724 20.8644 23.8591C20.9779 23.7435 21.0914 23.6302 21.2049 23.5169C21.4319 23.2925 21.6589 23.0703 21.8904 22.8504C21.9861 22.7593 22.0818 22.666 22.1775 22.5749C22.5024 22.2682 22.8318 21.9639 23.1634 21.6661C23.2057 21.6284 23.2479 21.5906 23.2902 21.5528C23.5818 21.2929 23.8733 21.0373 24.1693 20.7863C24.2806 20.6907 24.3941 20.5974 24.5053 20.5041C24.7368 20.3086 24.9705 20.1175 25.2042 19.9264C25.3288 19.8265 25.4534 19.7265 25.578 19.6265C25.8139 19.4399 26.0499 19.2554 26.288 19.0733C26.4059 18.9844 26.5217 18.8933 26.6396 18.8044C26.9401 18.5778 27.2427 18.3556 27.5476 18.1379C27.601 18.1001 27.6522 18.0601 27.7056 18.0223C28.0639 17.7668 28.4245 17.518 28.7895 17.2736C28.8963 17.2025 29.0031 17.1336 29.1099 17.0625C29.3725 16.8892 29.6352 16.7181 29.9 16.5493C30.0313 16.4648 30.1648 16.3826 30.2984 16.3004C30.5476 16.1449 30.7991 15.9938 31.0506 15.8427C31.1819 15.7649 31.3154 15.685 31.4467 15.6072C31.7271 15.4428 32.0098 15.2828 32.2924 15.1251C32.3926 15.0695 32.4927 15.0117 32.5951 14.9562C32.9779 14.7451 33.3651 14.5407 33.7546 14.3408C33.8369 14.2985 33.9215 14.2585 34.0038 14.2163C34.3132 14.0608 34.6248 13.9053 34.9363 13.7564C35.0721 13.692 35.2078 13.6298 35.3436 13.5653C35.6107 13.4409 35.8799 13.3165 36.1492 13.1965C36.2939 13.1321 36.4386 13.0676 36.5832 13.0054C36.8614 12.8855 37.144 12.7677 37.4245 12.6522C37.5535 12.5988 37.6804 12.5455 37.8117 12.4922C38.2212 12.3278 38.6307 12.17 39.0446 12.0167L63.6165 2.96277C63.2026 3.11607 62.7931 3.27382 62.3836 3.43824Z" fill="#BC77F3"/>
<path d="M24.6021 74.2825C24.6021 74.548 24.6088 74.8135 24.6132 75.079C24.6199 75.5432 24.6287 76.0073 24.642 76.4736C24.6487 76.7503 24.6575 77.027 24.6664 77.3037C24.6819 77.7745 24.6997 78.2475 24.7218 78.7228C24.7329 78.9861 24.744 79.2494 24.7573 79.5149C24.7839 80.0549 24.8171 80.5971 24.8526 81.1416C24.8659 81.3379 24.8747 81.5321 24.888 81.7284C24.939 82.467 24.9966 83.2078 25.0609 83.9508C25.0742 84.1115 25.0919 84.2721 25.1052 84.435C25.1584 85.0196 25.2138 85.6065 25.2759 86.1956C25.3025 86.4588 25.3335 86.7244 25.3623 86.9877C25.4155 87.4786 25.4731 87.9717 25.5329 88.4648C25.5684 88.7527 25.6038 89.0405 25.6415 89.3306C25.7036 89.8125 25.7678 90.2967 25.8365 90.7809C25.8764 91.0666 25.9163 91.3499 25.9584 91.6355C26.0338 92.1532 26.1136 92.6731 26.1978 93.193C26.2377 93.4407 26.2731 93.6861 26.3153 93.9338C26.4416 94.6992 26.5701 95.4645 26.7097 96.2343C26.887 97.2117 27.0776 98.1845 27.2749 99.1529C27.3347 99.443 27.3967 99.7331 27.4566 100.023C27.6051 100.728 27.758 101.429 27.9153 102.13C27.984 102.431 28.0505 102.73 28.1214 103.029C28.3165 103.863 28.5181 104.696 28.7265 105.523C28.7575 105.648 28.7885 105.776 28.8195 105.9C29.0611 106.849 29.316 107.793 29.5775 108.732C29.6506 108.998 29.7282 109.263 29.8035 109.529C30.0008 110.22 30.2024 110.91 30.4085 111.597C30.4972 111.894 30.5881 112.193 30.6789 112.49C30.9094 113.235 31.1443 113.976 31.3859 114.716C31.4479 114.906 31.5078 115.096 31.5698 115.283C31.8734 116.2 32.1859 117.111 32.5073 118.019C32.576 118.215 32.6491 118.412 32.72 118.606L8.14028 127.395C8.10704 127.301 8.07158 127.207 8.03833 127.112C7.71699 126.206 7.40451 125.293 7.10089 124.376C7.03884 124.188 6.979 123.997 6.91694 123.809C6.67538 123.071 6.44046 122.328 6.20998 121.582C6.11911 121.286 6.02826 120.989 5.93961 120.69C5.7335 120.003 5.53182 119.313 5.33458 118.619C5.25923 118.354 5.18167 118.088 5.10854 117.822C4.84703 116.883 4.59437 115.939 4.35059 114.991C4.31735 114.866 4.28854 114.739 4.25751 114.614C4.04919 113.786 3.84752 112.954 3.6525 112.119C3.5838 111.82 3.5151 111.519 3.4464 111.22C3.28683 110.519 3.13613 109.819 2.98764 109.114C2.92559 108.824 2.86353 108.533 2.80591 108.243C2.60867 107.273 2.41808 106.302 2.24079 105.325C2.10117 104.555 1.97041 103.79 1.8463 103.024C1.80641 102.777 1.76874 102.531 1.72885 102.283C1.64685 101.764 1.56706 101.244 1.4895 100.726C1.44739 100.44 1.4075 100.157 1.36761 99.8714C1.30112 99.3872 1.23464 98.903 1.17258 98.421C1.13491 98.1332 1.09945 97.8431 1.06399 97.5553C1.00416 97.0622 0.948746 96.569 0.893341 96.0781C0.864531 95.8148 0.833502 95.5493 0.806908 95.286C0.744854 94.6969 0.689457 94.1123 0.636269 93.5255C0.620758 93.3648 0.60524 93.2019 0.589725 93.0435C0.525455 92.3005 0.467827 91.5597 0.416855 90.8211C0.403557 90.6248 0.392483 90.4306 0.381401 90.2365C0.345943 89.6921 0.314919 89.1498 0.28611 88.6099C0.272812 88.3443 0.261723 88.081 0.250641 87.8177C0.228481 87.3447 0.210751 86.8716 0.195236 86.3986C0.186371 86.1219 0.177509 85.8452 0.17086 85.5685C0.159782 85.1022 0.150917 84.6381 0.144268 84.174C0.139835 83.9084 0.135406 83.6429 0.13319 83.3774C0.128757 82.9066 0.130974 82.438 0.13319 81.9694L24.6021 73.2203C24.6021 73.5751 24.5999 73.9299 24.6021 74.2847V74.2825Z" fill="#9A31EC"/>
<path d="M41.7296 18.9901C41.6291 19.1127 41.5285 19.2397 41.4279 19.3645C41.2335 19.6052 41.0413 19.8481 40.8514 20.0933C40.7486 20.2247 40.6458 20.3562 40.5452 20.4899C40.3486 20.7462 40.1542 21.0047 39.962 21.2655C39.8748 21.3836 39.7877 21.4995 39.7005 21.6176C39.4257 21.9942 39.153 22.3753 38.8826 22.7608C38.8737 22.7719 38.867 22.7853 38.858 22.7965C38.5988 23.1708 38.3418 23.5497 38.0871 23.933C38.0044 24.0578 37.9217 24.187 37.839 24.3118C37.6602 24.586 37.4815 24.8601 37.3071 25.1364C37.2155 25.2812 37.1239 25.4283 37.0323 25.5732C36.8624 25.8451 36.6948 26.1192 36.5295 26.3955C36.4446 26.5359 36.3596 26.6763 36.277 26.8167C36.0803 27.1465 35.8881 27.4808 35.6959 27.8151C35.6468 27.8998 35.5976 27.9844 35.5507 28.0691C35.4903 28.1761 35.4322 28.2875 35.3719 28.3945C35.1484 28.7979 34.925 29.2034 34.7082 29.6113C34.6121 29.7918 34.5182 29.9745 34.4244 30.1572C34.2456 30.4982 34.0713 30.8414 33.897 31.1868C33.7964 31.3874 33.6981 31.5902 33.5975 31.793C33.4322 32.1317 33.269 32.4727 33.1081 32.8159C33.0121 33.0187 32.9182 33.2192 32.8243 33.422C32.6545 33.7897 32.4891 34.1619 32.326 34.5341C32.2478 34.7123 32.1673 34.8906 32.0891 35.0689C31.8567 35.6082 31.6288 36.1497 31.4075 36.6979C31.4031 36.7113 31.3964 36.7247 31.3897 36.7381C31.1617 37.2996 30.9427 37.8679 30.7259 38.4406C30.6567 38.6234 30.5919 38.8084 30.5226 38.9911C30.3773 39.3855 30.2321 39.78 30.0913 40.1789C30.0153 40.3973 29.9393 40.6157 29.8656 40.8341C29.7382 41.2085 29.6108 41.5829 29.4879 41.9617C29.4142 42.1868 29.3404 42.4141 29.2689 42.6414C29.146 43.0314 29.0254 43.4214 28.9069 43.8158C28.8421 44.0275 28.7773 44.2393 28.7147 44.4532C28.5762 44.9234 28.4443 45.3981 28.3125 45.8728C28.2745 46.0087 28.2343 46.1446 28.1985 46.2806C28.0331 46.8934 27.8722 47.5129 27.718 48.1347C27.6778 48.2974 27.6398 48.4601 27.6018 48.6227C27.4901 49.0863 27.3784 49.552 27.2733 50.02C27.2219 50.2473 27.1728 50.4746 27.1236 50.7042C27.0342 51.1165 26.9471 51.5287 26.8622 51.9432C26.813 52.1884 26.7638 52.4335 26.7147 52.6787C26.6342 53.0909 26.556 53.5054 26.48 53.9199C26.4353 54.1606 26.3929 54.3991 26.3504 54.6397C26.27 55.0966 26.1962 55.5579 26.1225 56.017C26.0912 56.2153 26.0577 56.4114 26.0264 56.612C25.9258 57.2694 25.8297 57.9313 25.7403 58.5976C25.7292 58.6867 25.718 58.7759 25.7068 58.865C25.6308 59.4444 25.5593 60.0261 25.4923 60.6122C25.4677 60.8395 25.4431 61.069 25.4185 61.2963C25.3694 61.7487 25.3224 62.2033 25.28 62.658C25.2554 62.9165 25.2331 63.175 25.2107 63.4335C25.1727 63.8703 25.137 64.3071 25.1057 64.7461C25.0856 65.0068 25.0677 65.2676 25.0498 65.5305C25.0185 65.9918 24.9917 66.4554 24.9671 66.9189C24.9537 67.1551 24.9403 67.3913 24.9291 67.6276C24.9001 68.2226 24.8777 68.822 24.8576 69.4215C24.8531 69.5262 24.8487 69.631 24.8464 69.7357C24.8263 70.4399 24.8129 71.1486 24.804 71.8595C24.804 72.0712 24.804 72.2829 24.804 72.4946C24.804 72.6439 24.804 72.7955 24.804 72.947L0.130653 81.685C0.130653 81.6494 0.130653 81.6115 0.130653 81.5758C0.130653 81.3641 0.130653 81.1502 0.130653 80.9407C0.137356 80.2298 0.150764 79.5212 0.173111 78.8169C0.175346 78.7122 0.182049 78.6075 0.184284 78.5027C0.204395 77.9032 0.226742 77.3038 0.255795 76.7088C0.266968 76.4725 0.280373 76.2363 0.293781 76.0001C0.318363 75.5366 0.345177 75.073 0.376465 74.6117C0.394341 74.3488 0.414455 74.088 0.432331 73.8273C0.465851 73.3883 0.499378 72.9515 0.537369 72.5147C0.559715 72.2562 0.582062 71.9977 0.606644 71.7392C0.649105 71.2823 0.696033 70.8299 0.745193 70.3775C0.769775 70.1502 0.79213 69.9207 0.818943 69.6934C0.885986 69.1073 0.957485 68.5256 1.03347 67.9462C1.04464 67.8571 1.05582 67.7657 1.06699 67.6788C1.15638 67.0125 1.25246 66.3506 1.35303 65.6932C1.38431 65.4949 1.41783 65.2965 1.44912 65.0982C1.52286 64.6369 1.59885 64.1778 1.67706 63.721C1.71952 63.4803 1.76422 63.2396 1.80668 63.0011C1.88266 62.5844 1.96087 62.1721 2.04132 61.7599C2.08825 61.5147 2.13742 61.2696 2.18882 61.0245C2.27374 60.6099 2.36089 60.1977 2.45028 59.7854C2.49944 59.5581 2.5486 59.3285 2.59999 59.1012C2.70502 58.6333 2.81677 58.1675 2.9285 57.704C2.96873 57.5413 3.00447 57.3764 3.0447 57.2159C3.19889 56.5942 3.35756 55.9769 3.52517 55.3618C3.56316 55.2236 3.60115 55.0899 3.63914 54.954C3.77098 54.4771 3.90283 54.0046 4.04138 53.5344C4.10395 53.3205 4.16875 53.1088 4.23356 52.897C4.352 52.5048 4.47267 52.1126 4.59558 51.7248C4.66709 51.4975 4.74085 51.2702 4.81459 51.0429C4.9375 50.6663 5.06263 50.2897 5.19224 49.9175C5.26822 49.6991 5.34197 49.4785 5.41795 49.2601C5.55873 48.8612 5.70177 48.4668 5.84702 48.0723C5.91406 47.8896 5.9811 47.7046 6.05037 47.5219C6.26714 46.9491 6.48615 46.3809 6.71409 45.8193C6.72079 45.8037 6.72749 45.7881 6.73196 45.7747C6.95319 45.2287 7.18114 44.6872 7.41132 44.1501C7.48953 43.9696 7.56774 43.7936 7.64819 43.6153C7.81133 43.2431 7.97892 42.8709 8.14653 42.5032C8.24038 42.3004 8.33424 42.0976 8.43034 41.8949C8.59124 41.5517 8.75437 41.2107 8.91974 40.8742C9.01807 40.6714 9.11862 40.4686 9.21918 40.268C9.39125 39.9226 9.56779 39.5794 9.74657 39.2385C9.84042 39.0557 9.93429 38.873 10.0326 38.6925C10.2494 38.2824 10.4728 37.8768 10.6963 37.4757C10.7477 37.3843 10.7947 37.2907 10.8461 37.2016C10.855 37.1838 10.8662 37.1682 10.8751 37.1503C10.9243 37.0657 10.9734 36.981 11.0203 36.8963C11.2125 36.5598 11.4047 36.2277 11.6014 35.8979C11.6841 35.7575 11.769 35.6171 11.8539 35.4767C12.0193 35.2004 12.1869 34.9263 12.3567 34.6544C12.4483 34.5073 12.54 34.3625 12.6316 34.2176C12.8081 33.9413 12.9847 33.6649 13.1634 33.3931C13.2461 33.266 13.3288 33.139 13.4115 33.0142C13.6662 32.6309 13.921 32.2521 14.1825 31.8777C14.1914 31.8665 14.1981 31.8554 14.207 31.842C14.4752 31.4565 14.7478 31.0754 15.0249 30.6988C15.1121 30.5807 15.1992 30.4648 15.2864 30.3467C15.4786 30.0859 15.673 29.8274 15.8697 29.5711C15.9725 29.4374 16.073 29.306 16.1758 29.1745C16.3658 28.9293 16.5579 28.6864 16.7524 28.4457C16.8529 28.3209 16.9535 28.1962 17.054 28.0714C17.2797 27.7928 17.5099 27.5187 17.7401 27.2468C17.749 27.2357 17.758 27.2267 17.7647 27.2156L42.0313 18.6224C41.9285 18.745 41.8257 18.8653 41.7252 18.9901H41.7296Z" fill="#AA52EF"/>
<g clip-path="url(#clip0_8_612)">
<g filter="url(#filter0_i_8_612)">
<mask id="mask0_8_612" style="mask-type:luminance" maskUnits="userSpaceOnUse" x="65" y="30" width="83" height="114">
<path d="M100.015 137.052C122.411 151.486 143.571 140.658 147.276 112.869C150.982 85.0794 135.829 50.851 113.433 36.4176C91.036 21.9842 69.8762 32.8115 66.171 60.6011C62.4657 88.3906 77.618 122.619 100.015 137.052Z" fill="white"/>
</mask>
<g mask="url(#mask0_8_612)">
<path d="M117.163 98.3811C121.884 99.7887 127.752 101.331 131.521 108.192C135.1 104.03 140.676 98.4233 136.162 92.892C127.627 79.3635 117.066 68.8864 107.407 56.9347C106.73 56.097 106.02 55.0535 105.442 54.0805C103.385 50.6243 102.644 46.6693 101.196 42.7967C100.425 43.4386 96.6478 45.3752 96.3764 50.7523C96.369 50.9223 94.0041 46.7239 93.38 41.3226C90.4624 41.3844 77.5746 64.1842 82.921 93.6318C80.0955 87.6622 77.0327 76.5596 77.0806 62.4341C77.1541 40.576 89.0399 31.6034 98.7552 30.4554C96.8735 30.1736 96.3589 29.6341 92.2097 29.4503C89.7762 29.3373 86.5517 29.9007 85.2859 30.5403C62.4374 42.1344 57.2964 71.4953 73.1261 110.6C85.154 140.318 113.455 149.948 134.067 139.511C141.197 135.898 143.573 128.334 145.34 121.652C122.166 127.546 107.489 121.405 104.068 86.772C104.449 90.6318 108.397 95.7753 117.166 98.3877L117.163 98.3811ZM106.954 64.3021C106.99 64.3444 107.026 64.3866 107.067 64.4268C107.071 64.3963 107.067 64.3657 107.068 64.333C111.56 69.4253 115.673 74.0837 119.788 78.7486C119.02 78.712 118.256 78.5837 117.51 78.3817C111.673 76.8642 106.749 70.6059 106.957 64.3044L106.954 64.3021Z" fill="white"/>
</g>
</g>
<g filter="url(#filter1_i_8_612)">
<path d="M77.9503 34.3746C75.1783 36.5431 72.8192 39.299 70.8822 42.5159C65.6747 41.1303 60.5159 40.7211 55.5567 41.3856C56.8884 38.7095 61.4685 35.4618 63.8634 34.2363C69.5382 32.8894 71.8746 32.8737 77.9509 34.3702L77.9503 34.3746Z" fill="white"/>
<path d="M69.7924 44.4644C69.7212 44.5981 69.6536 44.7341 69.586 44.8701C68.0805 47.85 66.8965 51.1601 66.0476 54.7285C61.4917 55.0245 57.0861 56.1922 52.9419 58.3127C52.0101 58.7896 51.1069 59.3085 50.2289 59.8672C50.98 53.9771 56.2654 45.2965 59.5388 43.281C62.9494 43.2629 64.5855 43.1879 69.7959 44.4667L69.7924 44.4644Z" fill="white"/>
<path d="M65.4706 57.4564C65.4003 57.841 65.3335 58.228 65.2666 58.6149C65.1993 59.0345 65.1354 59.4564 65.075 59.8806C64.7111 62.4386 64.5044 65.1026 64.452 67.8377C58.658 72.2215 54.1618 78.467 51.0384 86.013C49.6778 78.1667 52.0654 63.0872 54.8948 60.4313C56.2369 59.477 61.5218 57.912 65.47 57.4607L65.4706 57.4564Z" fill="white"/>
<path d="M64.4495 70.2836C64.4602 71.0607 64.4848 71.8468 64.5206 72.6353C64.5439 73.1748 64.5783 73.7167 64.6121 74.2629C64.8004 77.0776 65.1453 79.9459 65.652 82.8571C61.439 90.2349 58.8211 99.3304 57.901 109.43C55.0108 102.488 53.5475 85.1303 55.2777 82.522C55.2777 82.522 58.849 74.7874 64.449 70.288L64.4495 70.2836Z" fill="white"/>
<path d="M66.3164 86.2716C66.4249 86.7715 66.5334 87.2715 66.653 87.7738C66.7762 88.3068 66.9034 88.8376 67.0383 89.3687C67.6186 91.6706 68.296 93.9877 69.0727 96.3026C67.4476 107.148 67.8997 119.38 70.555 131.997C66.1704 126.038 61.7126 116.716 60.5938 105.628C60.5803 105.501 63.2808 92.159 66.3164 86.2716Z" fill="white"/>
<path d="M85.536 144.165C86.411 146.142 87.3293 148.08 88.2802 149.973C82.7846 145.978 74.5347 133.994 71.8101 126.753C70.1146 116.649 69.9306 106.462 70.5911 100.508C70.7551 100.935 70.9231 101.36 71.0952 101.783C71.4851 102.743 71.8873 103.697 72.3116 104.655C73.5057 107.353 74.7949 109.936 76.1745 112.413C77.7488 122.798 80.844 133.571 85.5325 144.163L85.536 144.165Z" fill="white"/>
<path d="M108.174 159.108C102.435 157.999 94.4002 152.684 86.7002 142.288C86.7002 142.288 79.271 124.062 78.2221 115.906C78.2695 115.979 78.3128 116.054 78.3602 116.128C78.8902 116.979 79.4295 117.818 79.9787 118.64C83.9345 124.558 88.3937 129.643 93.1037 133.732C97.3222 143.25 102.457 151.781 108.177 159.115L108.174 159.108Z" fill="white"/>
<path d="M125.739 157.722C120.74 159.689 113.315 157.171 106.799 154.031C103.511 150.702 98.2931 141.452 95.1783 135.452C95.2783 135.531 95.3782 135.609 95.4782 135.688C96.0715 136.151 96.663 136.598 97.2604 137.03C101.762 140.285 106.42 142.645 111.042 143.974C111.192 144.014 111.346 144.062 111.497 144.102C115.986 149.386 120.784 153.957 125.736 157.72L125.739 157.722Z" fill="white"/>
<path d="M138.368 148.349C136.219 151.241 133.216 155.198 123.276 153.976C118.683 150.5 118.12 149.462 113.915 144.669C118.425 145.552 122.852 145.419 127.02 144.15C127.393 144.036 127.763 143.916 128.131 143.784C131.517 145.749 134.95 147.281 138.368 148.345L138.368 148.349Z" fill="white"/>
<path d="M96.9433 29.2498C96.0138 29.1375 95.0903 29.0668 94.1749 29.0486C93.8864 29.0422 93.5978 29.0358 93.3116 29.0404C89.4582 29.0661 83.311 31.1574 79.8265 32.8998C72.6175 31.245 67.9489 30.2445 61.3972 32.6563C66.4305 28.0942 71.3091 26.806 73.965 26.0511C79.6091 24.4483 86.8892 24.6274 96.9433 29.2498Z" fill="white"/>
<path d="M145.684 124.265C145.97 127.464 142.85 141.183 136.784 145.977C133.709 145.017 133.348 144.585 130.294 142.896C130.554 142.775 130.811 142.648 131.068 142.521C132.155 141.964 133.196 141.331 134.184 140.626C134.277 140.563 134.369 140.495 134.458 140.429C136.618 138.854 138.542 136.933 140.219 134.72C140.367 134.527 140.511 134.332 140.656 134.132C141.248 133.318 141.807 132.464 142.333 131.575C143.654 129.35 144.773 126.9 145.684 124.269L145.684 124.265Z" fill="white"/>
</g>
</g>
<defs>
<filter id="filter0_i_8_612" x="65.6134" y="30.0239" width="79.7263" height="115.538" filterUnits="userSpaceOnUse" color-interpolation-filters="sRGB">
<feFlood flood-opacity="0" result="BackgroundImageFix"/>
<feBlend mode="normal" in="SourceGraphic" in2="BackgroundImageFix" result="shape"/>
<feColorMatrix in="SourceAlpha" type="matrix" values="0 0 0 0 0 0 0 0 0 0 0 0 0 0 0 0 0 0 127 0" result="hardAlpha"/>
<feOffset dy="2.11619"/>
<feGaussianBlur stdDeviation="3.17429"/>
<feComposite in2="hardAlpha" operator="arithmetic" k2="-1" k3="1"/>
<feColorMatrix type="matrix" values="0 0 0 0 0 0 0 0 0 0 0 0 0 0 0 0 0 0 0.2 0"/>
<feBlend mode="normal" in2="shape" result="effect1_innerShadow_8_612"/>
</filter>
<filter id="filter1_i_8_612" x="50.2289" y="25.1368" width="95.4734" height="136.094" filterUnits="userSpaceOnUse" color-interpolation-filters="sRGB">
<feFlood flood-opacity="0" result="BackgroundImageFix"/>
<feBlend mode="normal" in="SourceGraphic" in2="BackgroundImageFix" result="shape"/>
<feColorMatrix in="SourceAlpha" type="matrix" values="0 0 0 0 0 0 0 0 0 0 0 0 0 0 0 0 0 0 127 0" result="hardAlpha"/>
<feOffset dy="2.11619"/>
<feGaussianBlur stdDeviation="3.17429"/>
<feComposite in2="hardAlpha" operator="arithmetic" k2="-1" k3="1"/>
<feColorMatrix type="matrix" values="0 0 0 0 0 0 0 0 0 0 0 0 0 0 0 0 0 0 0.2 0"/>
<feBlend mode="normal" in2="shape" result="effect1_innerShadow_8_612"/>
</filter>
<linearGradient id="paint0_linear_8_612" x1="90.7118" y1="17.0358" x2="103.64" y2="162.438" gradientUnits="userSpaceOnUse">
<stop stop-color="#871AE5"/>
<stop offset="1" stop-color="#21DBCF"/>
</linearGradient>
<linearGradient id="paint1_linear_8_612" x1="76.5879" y1="39.206" x2="118.702" y2="163.851" gradientUnits="userSpaceOnUse">
<stop stop-color="#871AE5"/>
<stop offset="1" stop-color="#21DBCF"/>
</linearGradient>
<clipPath id="clip0_8_612">
<rect width="114.186" height="120.555" fill="white" transform="matrix(0.840571 0.541701 -0.132164 0.991228 58.1059 0.762573)"/>
</clipPath>
</defs>
</svg>
