<svg width="172" height="200" viewBox="0 0 172 200" fill="none" xmlns="http://www.w3.org/2000/svg">
<path d="M80.7051 0.00212675C41.556 0.352531 17.6191 43.3697 27.239 96.0753C36.8588 148.785 76.3919 191.229 115.541 190.879C154.688 190.528 178.625 147.516 169.005 94.8054C159.385 42.0997 119.852 -0.346045 80.7051 0.00212675Z" fill="url(#paint0_linear_43_332)"/>
<path d="M33.8742 94.8901C38.274 119.002 49.3435 141.612 65.0377 158.551C80.3043 175.034 98.0547 184.109 115.023 184.109C115.166 184.109 115.302 184.104 115.444 184.104C124.549 184.024 132.896 181.278 140.058 176.081C143.199 173.799 146.113 171.046 148.764 167.841C162.467 151.26 167.553 124.4 162.369 95.9861C157.971 71.8743 146.904 49.2683 131.21 32.3249C115.943 15.8472 98.1906 6.77179 81.2243 6.77179H80.8033C70.1459 6.86758 60.5355 10.6078 52.6383 17.6671C50.8249 19.2844 49.1051 21.0799 47.4833 23.0424C33.7807 39.6226 28.6903 66.4789 33.8742 94.8924V94.8901Z" fill="url(#paint1_linear_43_332)"/>
<path d="M33.8768 94.7238C38.2821 118.881 49.3658 141.533 65.0802 158.504C80.3663 175.017 98.1394 184.109 115.13 184.109C115.272 184.109 115.408 184.104 115.551 184.104C124.668 184.024 133.026 181.272 140.197 176.066C142.01 174.441 143.734 172.646 145.358 170.68C159.079 154.069 164.171 127.158 158.98 98.6919C154.577 74.5351 143.496 51.8869 127.781 34.912C112.491 18.4035 94.72 9.31122 77.732 9.31122H77.3104C68.1941 9.39156 59.8361 12.1434 52.6648 17.3546C50.8491 18.9748 49.1271 20.7737 47.5033 22.7399C33.7831 39.351 28.6862 66.2574 33.8768 94.7238Z" fill="url(#paint2_linear_43_332)"/>
<path d="M33.2974 118.611C33.5463 119.294 33.7997 119.976 34.0576 120.652C34.1665 120.94 34.2776 121.226 34.3888 121.512C34.6533 122.19 34.92 122.864 35.1934 123.533C35.2845 123.755 35.3712 123.976 35.4624 124.198C35.8247 125.073 36.1937 125.942 36.5715 126.807C36.6516 126.991 36.736 127.174 36.8183 127.358C37.1228 128.045 37.4317 128.73 37.7452 129.411C37.8719 129.685 38.0008 129.958 38.1275 130.231C38.4231 130.86 38.7254 131.487 39.0299 132.11C39.1455 132.345 39.2589 132.582 39.3744 132.817C39.7901 133.655 40.2124 134.486 40.6414 135.312C40.7014 135.43 40.7659 135.543 40.8259 135.66C41.1993 136.372 41.5794 137.076 41.964 137.779C42.104 138.034 42.2463 138.289 42.3863 138.541C42.7153 139.131 43.0465 139.716 43.3843 140.299C43.5221 140.538 43.6577 140.778 43.7978 141.015C44.2623 141.81 44.7335 142.599 45.2137 143.382C45.5715 143.967 45.9361 144.545 46.3028 145.121C46.3962 145.268 46.4895 145.414 46.5829 145.56C46.9341 146.108 47.2875 146.655 47.6476 147.196C47.6676 147.225 47.6854 147.253 47.7054 147.282C48.081 147.847 48.4589 148.406 48.8412 148.962C48.939 149.104 49.0368 149.246 49.1346 149.388C49.4903 149.902 49.8481 150.414 50.2104 150.919C50.2438 150.965 50.2749 151.012 50.3082 151.056C50.6972 151.602 51.0929 152.14 51.4885 152.674C51.5886 152.809 51.6886 152.945 51.7908 153.08C52.1531 153.565 52.5177 154.048 52.8867 154.527C52.9289 154.582 52.9733 154.64 53.0156 154.695C53.4201 155.218 53.8291 155.735 54.2381 156.249C54.3426 156.38 54.4448 156.508 54.5493 156.637C54.9183 157.093 55.2872 157.548 55.6607 157.995C55.714 158.062 55.7696 158.128 55.8229 158.193C55.8852 158.266 55.9474 158.339 56.0096 158.412L31.2458 167.179C31.2035 167.128 31.1613 167.075 31.1191 167.024C30.7456 166.574 30.3767 166.122 30.0077 165.666C29.9032 165.537 29.7988 165.409 29.6965 165.278C29.2853 164.764 28.8785 164.247 28.474 163.724C28.4318 163.669 28.3873 163.611 28.3451 163.556C27.9761 163.077 27.6115 162.594 27.2492 162.109C27.1492 161.973 27.047 161.838 26.9469 161.703C26.5513 161.167 26.1556 160.628 25.7667 160.085C25.7333 160.039 25.7022 159.992 25.6689 159.948C25.3065 159.44 24.9487 158.931 24.593 158.416C24.4952 158.275 24.3974 158.133 24.2996 157.993C23.9173 157.437 23.5372 156.876 23.1638 156.311C23.1438 156.282 23.126 156.253 23.106 156.225C22.7481 155.684 22.3947 155.139 22.0435 154.591C21.9502 154.445 21.8568 154.299 21.7634 154.15C21.3989 153.576 21.0366 153 20.6787 152.417C20.6787 152.417 20.6787 152.413 20.6765 152.413C20.1964 151.633 19.7274 150.841 19.2606 150.046C19.1206 149.809 18.985 149.569 18.8472 149.33C18.5115 148.747 18.1781 148.162 17.8492 147.572C17.7069 147.318 17.5669 147.065 17.4268 146.81C17.0423 146.11 16.6622 145.403 16.2888 144.691C16.2288 144.576 16.1643 144.461 16.1043 144.343C15.6731 143.519 15.253 142.686 14.8373 141.848C14.7217 141.613 14.6083 141.378 14.4928 141.141C14.1882 140.518 13.886 139.891 13.5903 139.262C13.4614 138.989 13.3347 138.716 13.208 138.444C12.8946 137.764 12.5834 137.079 12.2789 136.392C12.1967 136.208 12.1144 136.026 12.0322 135.84C11.6543 134.976 11.2853 134.105 10.923 133.231C10.8319 133.012 10.7452 132.788 10.6541 132.569C10.3807 131.897 10.1117 131.223 9.84719 130.545C9.73605 130.259 9.62491 129.974 9.516 129.685C9.25816 129.007 9.00475 128.327 8.7558 127.644C8.7069 127.509 8.658 127.374 8.60688 127.237L33.2596 118.507C33.2729 118.542 33.2841 118.576 33.2974 118.611Z" fill="#EAEAEA"/>
<path d="M57.316 159.565C57.4227 159.688 57.5273 159.811 57.634 159.936C58.0076 160.37 58.3857 160.801 58.7637 161.228C58.8282 161.3 58.8905 161.373 58.955 161.445C59.3864 161.928 59.82 162.406 60.2581 162.877C60.3649 162.994 60.4716 163.108 60.5806 163.224C60.9631 163.633 61.3456 164.039 61.7303 164.442C61.8037 164.518 61.8771 164.596 61.9505 164.672C62.393 165.132 62.84 165.586 63.2892 166.033C63.3982 166.143 63.5072 166.25 63.6161 166.357C64.0053 166.744 64.3945 167.126 64.7881 167.504C64.8681 167.582 64.9482 167.66 65.0305 167.738C65.4864 168.174 65.9445 168.603 66.4026 169.03C66.5116 169.131 66.6205 169.229 66.7295 169.329C67.1253 169.691 67.5212 170.051 67.9215 170.404C68.0104 170.483 68.0994 170.563 68.1883 170.641C68.6531 171.053 69.1223 171.457 69.5916 171.855C69.7005 171.949 69.8095 172.038 69.9207 172.132C70.321 172.469 70.7257 172.805 71.1282 173.135C71.2238 173.214 71.3217 173.294 71.4173 173.372C71.8932 173.757 72.3691 174.137 72.8495 174.51C72.9584 174.595 73.0652 174.678 73.1741 174.76C73.5833 175.075 73.9925 175.386 74.4039 175.694C74.5062 175.77 74.6085 175.849 74.713 175.925C75.1978 176.282 75.6849 176.635 76.1719 176.982C76.2786 177.058 76.3831 177.131 76.4899 177.205C76.9057 177.498 77.3238 177.786 77.7419 178.07C77.8509 178.144 77.9598 178.22 78.0688 178.294C78.5625 178.624 79.0562 178.951 79.5521 179.268C79.6566 179.335 79.7611 179.4 79.8657 179.467C80.2882 179.735 80.7129 180.001 81.1377 180.26C81.2511 180.33 81.3667 180.401 81.4802 180.47C81.9805 180.774 82.4831 181.071 82.9879 181.362C83.088 181.42 83.1881 181.476 83.2881 181.534C83.7196 181.78 84.151 182.021 84.5846 182.258C84.7047 182.323 84.8226 182.39 84.9427 182.453C85.4497 182.728 85.9589 182.996 86.4704 183.257C86.5661 183.306 86.6639 183.353 86.7595 183.402C87.1998 183.626 87.6402 183.843 88.0805 184.055C88.2028 184.115 88.3251 184.174 88.4496 184.232C88.9656 184.477 89.4815 184.717 89.9974 184.947C90.0864 184.987 90.1776 185.025 90.2665 185.065C90.7157 185.264 91.1649 185.456 91.6164 185.646C91.7431 185.7 91.8699 185.754 91.9967 185.805C92.517 186.02 93.0396 186.227 93.5622 186.428C93.6467 186.46 93.729 186.491 93.8135 186.522C94.2716 186.697 94.7297 186.864 95.1878 187.027C95.3168 187.074 95.448 187.119 95.577 187.166C96.1018 187.349 96.6289 187.526 97.1559 187.696C97.2315 187.72 97.3049 187.743 97.3805 187.765C97.8475 187.912 98.3168 188.053 98.786 188.192C98.9194 188.23 99.0506 188.27 99.1841 188.306C99.7156 188.456 100.245 188.601 100.779 188.737C100.843 188.753 100.908 188.768 100.97 188.784C101.45 188.905 101.928 189.019 102.411 189.128C102.547 189.16 102.68 189.189 102.816 189.22C103.296 189.325 103.779 189.425 104.259 189.519L79.094 198.499C78.816 198.441 78.538 198.387 78.2623 198.327C78.1266 198.298 77.9932 198.267 77.8575 198.235C77.3772 198.126 76.8968 198.012 76.4165 197.891C76.352 197.876 76.2875 197.86 76.2252 197.844C75.6937 197.708 75.1622 197.563 74.633 197.413C74.4995 197.375 74.3683 197.337 74.2349 197.299C73.7657 197.163 73.2965 197.02 72.8295 196.872C72.7561 196.847 72.6805 196.827 72.6048 196.803C72.0778 196.635 71.5507 196.456 71.0259 196.273C70.8947 196.228 70.7657 196.182 70.6345 196.135C70.1764 195.971 69.7183 195.804 69.2602 195.632C69.1757 195.6 69.0934 195.569 69.0089 195.538C68.4863 195.337 67.9659 195.129 67.4456 194.914C67.3188 194.861 67.1898 194.807 67.0631 194.756C66.6138 194.568 66.1646 194.373 65.7176 194.177C65.6265 194.137 65.5375 194.099 65.4463 194.058C64.9282 193.826 64.4123 193.587 63.8985 193.343C63.7762 193.285 63.6539 193.225 63.5294 193.167C63.0891 192.954 62.6465 192.735 62.2084 192.514C62.1128 192.465 62.015 192.418 61.9193 192.369C61.4079 192.107 60.8986 191.839 60.3916 191.564C60.2715 191.499 60.1536 191.435 60.0335 191.37C59.5999 191.133 59.1685 190.892 58.737 190.646C58.637 190.588 58.5369 190.532 58.4368 190.474C57.932 190.183 57.4294 189.886 56.9291 189.582C56.8156 189.513 56.7 189.441 56.5866 189.372C56.1618 189.11 55.7371 188.847 55.3146 188.578C55.21 188.511 55.1055 188.447 55.001 188.38C54.5051 188.06 54.0114 187.736 53.5177 187.405C53.4087 187.331 53.2975 187.255 53.1886 187.182C52.7705 186.898 52.3546 186.612 51.9388 186.319C51.832 186.243 51.7253 186.169 51.6163 186.093C51.1293 185.747 50.6423 185.394 50.1575 185.036C50.053 184.96 49.9507 184.882 49.8484 184.804C49.437 184.498 49.03 184.187 48.6208 183.872C48.5119 183.787 48.4029 183.704 48.2939 183.619C47.8158 183.246 47.3377 182.868 46.864 182.484C46.7662 182.406 46.6705 182.325 46.5727 182.245C46.1679 181.914 45.7654 181.581 45.3651 181.244C45.2562 181.152 45.145 181.06 45.036 180.966C44.5668 180.566 44.0998 180.162 43.635 179.753C43.5438 179.675 43.4549 179.592 43.3659 179.514C42.9679 179.161 42.572 178.803 42.1784 178.441C42.0694 178.34 41.9582 178.242 41.8493 178.139C41.3889 177.715 40.9331 177.286 40.4772 176.85C40.3949 176.772 40.3148 176.691 40.2325 176.613C39.8411 176.235 39.452 175.853 39.0628 175.469C38.9538 175.361 38.8449 175.254 38.7359 175.145C38.2867 174.695 37.8419 174.242 37.3971 173.784C37.3238 173.708 37.2504 173.629 37.177 173.553C36.7923 173.151 36.4076 172.744 36.0273 172.335C35.9205 172.219 35.8116 172.105 35.7048 171.989C35.269 171.515 34.8331 171.039 34.4017 170.556C34.3372 170.485 34.2749 170.411 34.2104 170.34C33.8301 169.913 33.4543 169.481 33.0785 169.048C32.9717 168.925 32.865 168.802 32.7605 168.677C32.3357 168.181 31.9154 167.682 31.4973 167.175C31.4862 167.162 31.4729 167.146 31.4617 167.133L56.2375 158.291C56.5955 158.72 56.9535 159.147 57.3138 159.57L57.316 159.565Z" fill="#E5E5E5"/>
<path d="M104.565 189.524C104.618 189.533 104.672 189.542 104.725 189.554C105.215 189.647 105.706 189.733 106.196 189.814C106.332 189.837 106.467 189.859 106.603 189.88C107.14 189.963 107.675 190.042 108.212 190.11C108.252 190.115 108.289 190.119 108.327 190.124C108.831 190.187 109.335 190.242 109.841 190.291C109.979 190.305 110.114 190.319 110.252 190.33C110.791 190.377 111.33 190.423 111.87 190.454C111.89 190.454 111.912 190.454 111.932 190.457C112.454 190.488 112.975 190.509 113.497 190.522C113.634 190.527 113.77 190.529 113.907 190.533C114.449 190.545 114.991 190.552 115.53 190.547C121.456 190.493 127.032 189.436 132.193 187.495L107.686 196.715C102.525 198.656 96.9494 199.713 91.023 199.767C90.4814 199.772 89.9398 199.767 89.4004 199.753C89.2628 199.751 89.1274 199.747 88.9898 199.742C88.4682 199.726 87.9466 199.706 87.425 199.677C87.405 199.677 87.3828 199.677 87.3628 199.674C86.8235 199.643 86.2841 199.6 85.7447 199.55C85.6071 199.539 85.4717 199.525 85.3341 199.511C84.8302 199.462 84.3242 199.407 83.8203 199.344C83.7803 199.339 83.7426 199.335 83.7049 199.33C83.1677 199.262 82.6306 199.183 82.0956 199.1C81.9602 199.079 81.8249 199.057 81.6895 199.034C81.1989 198.953 80.7084 198.867 80.2178 198.774C80.1646 198.765 80.1113 198.756 80.058 198.744C79.8005 198.695 79.5453 198.636 79.2878 198.584L104.405 189.493C104.458 189.504 104.512 189.515 104.565 189.527V189.524Z" fill="#DBDBDB"/>
<path d="M62.8183 3.43818C62.6892 3.48928 62.5601 3.54483 62.431 3.59815C62.1484 3.71369 61.868 3.83144 61.5898 3.95142C61.4451 4.01363 61.3005 4.07807 61.1558 4.1425C60.8865 4.26248 60.6172 4.38468 60.3502 4.5091C60.2144 4.57353 60.0787 4.63574 59.9429 4.70018C59.6313 4.84904 59.322 5.00235 59.0127 5.1601C58.9281 5.20231 58.8435 5.2423 58.7612 5.28674C58.3717 5.48671 57.9867 5.69111 57.6039 5.90219C57.5015 5.95773 57.4014 6.0155 57.299 6.07327C57.0164 6.23102 56.7337 6.39099 56.4555 6.55318C56.322 6.63095 56.1907 6.71093 56.0572 6.7887C55.8057 6.93978 55.5564 7.09087 55.3072 7.24417C55.1736 7.32638 55.0401 7.41081 54.9088 7.49524C54.644 7.66188 54.3836 7.83296 54.1232 8.00626C54.0164 8.07736 53.9073 8.14846 53.7983 8.21956C53.4355 8.46396 53.0728 8.7128 52.7145 8.96831C52.661 9.00608 52.6076 9.04608 52.5542 9.08385C52.2493 9.30159 51.9466 9.52377 51.6462 9.7504C51.5282 9.83927 51.4103 9.93036 51.2923 10.0215C51.0542 10.2036 50.8183 10.3881 50.5846 10.5747C50.46 10.6747 50.3354 10.7747 50.2107 10.8746C49.9771 11.0635 49.7434 11.2568 49.5119 11.4501C49.3984 11.5434 49.2872 11.639 49.1737 11.7345C48.8799 11.9856 48.5883 12.2411 48.299 12.4988C48.2545 12.5388 48.21 12.5743 48.1677 12.6143C47.8361 12.9121 47.509 13.2142 47.184 13.5231C47.0883 13.6142 46.9927 13.7075 46.897 13.7986C46.6677 14.0185 46.4385 14.2407 46.2115 14.4651C46.098 14.5784 45.9845 14.6917 45.871 14.8073C45.6596 15.0206 45.4504 15.2361 45.2412 15.4538C45.1321 15.5671 45.0209 15.6827 44.9118 15.7982C44.6803 16.0448 44.4511 16.2937 44.2219 16.5447C44.144 16.6314 44.0639 16.7158 43.986 16.8025C43.6833 17.1402 43.3829 17.4824 43.0869 17.829C43.0201 17.9067 42.9556 17.9867 42.8888 18.0645C42.762 18.2156 42.6351 18.3689 42.5082 18.52L18.3414 27.0873C18.3993 27.0185 18.4571 26.9496 18.515 26.8807C18.811 26.5341 19.1114 26.1919 19.4141 25.8542C19.492 25.7676 19.5721 25.6831 19.65 25.5965C19.8792 25.3454 20.1085 25.0966 20.3399 24.8499C20.449 24.7344 20.558 24.6211 20.6693 24.5056C20.8785 24.2878 21.0877 24.0723 21.2991 23.859C21.4126 23.7435 21.5261 23.6302 21.6396 23.5169C21.8666 23.2924 22.0936 23.0703 22.3251 22.8503C22.4208 22.7592 22.5165 22.6659 22.6122 22.5748C22.9371 22.2682 23.2665 21.9638 23.5981 21.6661C23.6403 21.6283 23.6826 21.5905 23.7249 21.5528C24.0165 21.2928 24.308 21.0373 24.604 20.7862C24.7153 20.6907 24.8288 20.5974 24.94 20.504C25.1715 20.3085 25.4052 20.1175 25.6389 19.9264C25.7635 19.8264 25.8881 19.7264 26.0127 19.6264C26.2486 19.4398 26.4845 19.2554 26.7227 19.0732C26.8406 18.9843 26.9564 18.8932 27.0743 18.8044C27.3748 18.5777 27.6774 18.3555 27.9823 18.1378C28.0357 18.1 28.0869 18.06 28.1403 18.0223C28.4986 17.7668 28.8592 17.5179 29.2242 17.2735C29.331 17.2024 29.4378 17.1335 29.5446 17.0624C29.8072 16.8891 30.0699 16.7181 30.3347 16.5492C30.466 16.4648 30.5995 16.3826 30.7331 16.3003C30.9823 16.1448 31.2338 15.9937 31.4853 15.8427C31.6166 15.7649 31.7501 15.6849 31.8814 15.6071C32.1618 15.4427 32.4445 15.2828 32.7271 15.125C32.8273 15.0695 32.9274 15.0117 33.0298 14.9561C33.4126 14.7451 33.7998 14.5407 34.1893 14.3407C34.2716 14.2985 34.3562 14.2585 34.4385 14.2163C34.7479 14.0607 35.0595 13.9052 35.371 13.7564C35.5068 13.6919 35.6425 13.6297 35.7783 13.5653C36.0454 13.4409 36.3146 13.3164 36.5839 13.1965C36.7286 13.132 36.8732 13.0676 37.0179 13.0054C37.2961 12.8854 37.5787 12.7676 37.8592 12.6521C37.9882 12.5988 38.1151 12.5455 38.2464 12.4921C38.6559 12.3277 39.0654 12.17 39.4793 12.0167L64.0512 2.96271C63.6373 3.11601 63.2278 3.27376 62.8183 3.43818Z" fill="white"/>
<path d="M25.0368 73.8592C25.0368 74.1247 25.0435 74.3902 25.0479 74.6558C25.0546 75.1199 25.0634 75.584 25.0767 76.0503C25.0834 76.327 25.0922 76.6037 25.1011 76.8804C25.1166 77.3512 25.1343 77.8243 25.1565 78.2995C25.1676 78.5628 25.1787 78.8261 25.192 79.0917C25.2186 79.6316 25.2518 80.1739 25.2873 80.7183C25.3005 80.9147 25.3094 81.1088 25.3227 81.3051C25.3737 82.0437 25.4313 82.7845 25.4956 83.5275C25.5089 83.6882 25.5266 83.8489 25.5399 84.0118C25.5931 84.5964 25.6485 85.1832 25.7106 85.7723C25.7371 86.0356 25.7682 86.3011 25.797 86.5644C25.8502 87.0553 25.9078 87.5484 25.9676 88.0415C26.0031 88.3294 26.0385 88.6172 26.0762 88.9073C26.1383 89.3893 26.2025 89.8735 26.2712 90.3577C26.3111 90.6433 26.351 90.9267 26.3931 91.2123C26.4685 91.7299 26.5483 92.2498 26.6325 92.7697C26.6724 93.0174 26.7078 93.2629 26.7499 93.5105C26.8763 94.2759 27.0048 95.0412 27.1444 95.8111C27.3217 96.7884 27.5123 97.7612 27.7095 98.7296C27.7694 99.0197 27.8314 99.3098 27.8913 99.5999C28.0398 100.305 28.1927 101.006 28.35 101.706C28.4187 102.007 28.4852 102.306 28.5561 102.605C28.7512 103.44 28.9528 104.272 29.1612 105.1C29.1922 105.225 29.2232 105.352 29.2542 105.477C29.4958 106.426 29.7507 107.369 30.0122 108.309C30.0853 108.574 30.1629 108.84 30.2382 109.105C30.4355 109.797 30.6371 110.487 30.8432 111.174C30.9319 111.471 31.0228 111.77 31.1136 112.066C31.3441 112.812 31.579 113.552 31.8206 114.293C31.8826 114.483 31.9425 114.673 32.0045 114.86C32.3081 115.777 32.6206 116.687 32.942 117.596C33.0107 117.792 33.0838 117.988 33.1547 118.182L8.57498 126.972C8.54173 126.878 8.50627 126.784 8.47303 126.688C8.15168 125.782 7.8392 124.87 7.53558 123.953C7.47353 123.765 7.41369 123.573 7.35163 123.386C7.11007 122.647 6.87515 121.904 6.64467 121.159C6.55381 120.862 6.46295 120.565 6.3743 120.266C6.1682 119.579 5.96651 118.89 5.76927 118.196C5.69392 117.93 5.61637 117.665 5.54323 117.399C5.28172 116.46 5.02906 115.516 4.78528 114.568C4.75204 114.443 4.72323 114.316 4.69221 114.191C4.48389 113.363 4.28222 112.53 4.08719 111.696C4.01849 111.397 3.94979 111.096 3.88109 110.797C3.72152 110.096 3.57082 109.395 3.42234 108.69C3.36028 108.4 3.29823 108.11 3.24061 107.82C3.04337 106.849 2.85278 105.879 2.67548 104.902C2.53586 104.132 2.4051 103.366 2.28099 102.601C2.2411 102.353 2.20343 102.108 2.16354 101.86C2.08154 101.34 2.00176 100.82 1.92419 100.303C1.88208 100.017 1.84219 99.7337 1.8023 99.4481C1.73582 98.9639 1.66933 98.4797 1.60728 97.9978C1.5696 97.7099 1.53414 97.4198 1.49869 97.132C1.43885 96.6389 1.38344 96.1458 1.32803 95.6549C1.29922 95.3916 1.26819 95.126 1.2416 94.8627C1.17955 94.2737 1.12415 93.6891 1.07096 93.1022C1.05545 92.9416 1.03993 92.7787 1.02442 92.6202C0.960148 91.8772 0.902519 91.1364 0.851547 90.3978C0.838249 90.2015 0.827175 90.0073 0.816093 89.8132C0.780636 89.2688 0.749611 88.7266 0.720802 88.1866C0.707504 87.921 0.696415 87.6578 0.685333 87.3945C0.663174 86.9214 0.645443 86.4484 0.629929 85.9753C0.621063 85.6986 0.612202 85.422 0.605553 85.1453C0.594475 84.6789 0.585609 84.2148 0.57896 83.7507C0.574528 83.4852 0.570099 83.2196 0.567883 82.9541C0.56345 82.4833 0.565666 82.0147 0.567883 81.5461L25.0368 72.7971C25.0368 73.1518 25.0346 73.5066 25.0368 73.8614V73.8592Z" fill="#F5F5F5"/>
<path d="M42.1644 18.9902C42.0638 19.1128 41.9633 19.2398 41.8627 19.3646C41.6683 19.6053 41.4761 19.8482 41.2861 20.0933C41.1833 20.2248 41.0805 20.3563 40.98 20.49C40.7833 20.7463 40.5889 21.0048 40.3967 21.2655C40.3096 21.3836 40.2224 21.4995 40.1353 21.6176C39.8604 21.9942 39.5878 22.3753 39.3174 22.7609C39.3084 22.772 39.3017 22.7854 39.2928 22.7965C39.0336 23.1709 38.7766 23.5498 38.5218 23.9331C38.4391 24.0579 38.3564 24.1871 38.2738 24.3119C38.095 24.586 37.9162 24.8601 37.7419 25.1365C37.6503 25.2813 37.5587 25.4284 37.467 25.5732C37.2972 25.8451 37.1296 26.1192 36.9642 26.3956C36.8793 26.536 36.7944 26.6764 36.7117 26.8168C36.5151 27.1466 36.3229 27.4809 36.1307 27.8151C36.0815 27.8998 36.0324 27.9845 35.9854 28.0692C35.9251 28.1762 35.867 28.2876 35.8067 28.3946C35.5832 28.7979 35.3597 29.2035 35.1429 29.6113C35.0469 29.7918 34.953 29.9746 34.8591 30.1573C34.6804 30.4983 34.5061 30.8415 34.3317 31.1869C34.2312 31.3874 34.1329 31.5902 34.0323 31.793C33.8669 32.1318 33.7038 32.4727 33.5429 32.8159C33.4468 33.0187 33.3529 33.2193 33.2591 33.4221C33.0893 33.7898 32.9239 34.162 32.7608 34.5341C32.6825 34.7124 32.6021 34.8907 32.5239 35.069C32.2915 35.6083 32.0635 36.1498 31.8423 36.698C31.8378 36.7114 31.8311 36.7248 31.8244 36.7381C31.5965 37.2997 31.3775 37.868 31.1607 38.4407C31.0914 38.6234 31.0266 38.8084 30.9573 38.9912C30.8121 39.3856 30.6668 39.7801 30.5261 40.179C30.4501 40.3974 30.3741 40.6157 30.3003 40.8341C30.173 41.2085 30.0456 41.5829 29.9227 41.9618C29.8489 42.1869 29.7752 42.4142 29.7037 42.6415C29.5808 43.0315 29.4601 43.4214 29.3417 43.8159C29.2769 44.0276 29.212 44.2393 29.1495 44.4533C29.0109 44.9235 28.8791 45.3981 28.7472 45.8728C28.7092 46.0088 28.669 46.1447 28.6333 46.2806C28.4679 46.8935 28.307 47.513 28.1528 48.1348C28.1126 48.2974 28.0746 48.4601 28.0366 48.6228C27.9249 49.0863 27.8131 49.5521 27.7081 50.0201C27.6567 50.2474 27.6075 50.4747 27.5584 50.7042C27.469 51.1165 27.3818 51.5288 27.2969 51.9433C27.2477 52.1884 27.1986 52.4336 27.1494 52.6787C27.069 53.091 26.9907 53.5055 26.9148 53.92C26.8701 54.1607 26.8276 54.3991 26.7852 54.6398C26.7047 55.0967 26.631 55.558 26.5572 56.017C26.5259 56.2154 26.4924 56.4115 26.4611 56.612C26.3606 57.2695 26.2645 57.9313 26.1751 58.5977C26.1639 58.6868 26.1527 58.7759 26.1416 58.8651C26.0656 59.4445 25.9941 60.0261 25.927 60.6122C25.9025 60.8395 25.8779 61.0691 25.8533 61.2964C25.8041 61.7488 25.7572 62.2034 25.7147 62.658C25.6902 62.9165 25.6678 63.175 25.6455 63.4335C25.6075 63.8703 25.5717 64.3071 25.5404 64.7461C25.5203 65.0069 25.5024 65.2676 25.4846 65.5306C25.4533 65.9919 25.4265 66.4554 25.4019 66.9189C25.3885 67.1552 25.3751 67.3914 25.3639 67.6276C25.3348 68.2226 25.3125 68.8221 25.2924 69.4216C25.2879 69.5263 25.2834 69.6311 25.2812 69.7358C25.2611 70.44 25.2477 71.1487 25.2387 71.8596C25.2387 72.0713 25.2387 72.283 25.2387 72.4947C25.2387 72.644 25.2387 72.7955 25.2387 72.9471L0.565407 81.6851C0.565407 81.6494 0.565407 81.6116 0.565407 81.5759C0.565407 81.3642 0.565407 81.1503 0.565407 80.9408C0.572109 80.2299 0.585518 79.5212 0.607864 78.817C0.6101 78.7123 0.616802 78.6075 0.619038 78.5028C0.639149 77.9033 0.661495 77.3038 0.690548 76.7088C0.701721 76.4726 0.715126 76.2364 0.728535 76.0002C0.753117 75.5366 0.77993 75.0731 0.811218 74.6118C0.829094 74.3488 0.849209 74.0881 0.867085 73.8274C0.900604 73.3883 0.934132 72.9515 0.972122 72.5148C0.994469 72.2562 1.01682 71.9977 1.0414 71.7392C1.08386 71.2824 1.13079 70.83 1.17995 70.3776C1.20453 70.1503 1.22688 69.9208 1.2537 69.6934C1.32074 69.1073 1.39224 68.5257 1.46822 67.9463C1.47939 67.8571 1.49057 67.7658 1.50175 67.6789C1.59113 67.0125 1.68722 66.3507 1.78778 65.6933C1.81907 65.4949 1.85258 65.2966 1.88387 65.0982C1.95761 64.6369 2.0336 64.1779 2.11182 63.721C2.15427 63.4803 2.19897 63.2397 2.24143 63.0012C2.31741 62.5845 2.39562 62.1722 2.47607 61.7599C2.523 61.5148 2.57217 61.2696 2.62357 61.0245C2.70849 60.61 2.79564 60.1977 2.88503 59.7855C2.93419 59.5581 2.98335 59.3286 3.03475 59.1013C3.13978 58.6333 3.25152 58.1676 3.36326 57.704C3.40348 57.5413 3.43923 57.3764 3.47945 57.216C3.63365 56.5942 3.79232 55.9769 3.95992 55.3618C3.99791 55.2237 4.0359 55.09 4.07389 54.954C4.20574 54.4771 4.33758 54.0047 4.47614 53.5345C4.5387 53.3205 4.60351 53.1088 4.66832 52.8971C4.78675 52.5049 4.90742 52.1127 5.03033 51.7249C5.10184 51.4976 5.1756 51.2703 5.24934 51.043C5.37225 50.6664 5.49738 50.2897 5.627 49.9176C5.70298 49.6992 5.77673 49.4786 5.8527 49.2602C5.99349 48.8613 6.13652 48.4668 6.28178 48.0724C6.34882 47.8896 6.41585 47.7047 6.48513 47.5219C6.70189 46.9492 6.9209 46.3809 7.14884 45.8193C7.15554 45.8037 7.16224 45.7881 7.16671 45.7748C7.38795 45.2288 7.61589 44.6872 7.84607 44.1502C7.92428 43.9697 8.00249 43.7936 8.08295 43.6153C8.24608 43.2432 8.41368 42.871 8.58128 42.5033C8.67514 42.3005 8.769 42.0977 8.86509 41.8949C9.02599 41.5517 9.18913 41.2108 9.35449 40.8743C9.45282 40.6715 9.55337 40.4687 9.65393 40.2681C9.82601 39.9227 10.0025 39.5795 10.1813 39.2385C10.2752 39.0558 10.369 38.873 10.4674 38.6925C10.6841 38.2825 10.9076 37.8769 11.1311 37.4758C11.1825 37.3844 11.2294 37.2908 11.2808 37.2017C11.2897 37.1838 11.3009 37.1682 11.3099 37.1504C11.359 37.0657 11.4082 36.981 11.4551 36.8963C11.6473 36.5598 11.8395 36.2278 12.0361 35.898C12.1188 35.7576 12.2037 35.6172 12.2887 35.4768C12.454 35.2004 12.6216 34.9263 12.7915 34.6545C12.8831 34.5074 12.9747 34.3625 13.0663 34.2177C13.2429 33.9413 13.4194 33.665 13.5982 33.3931C13.6809 33.2661 13.7636 33.1391 13.8462 33.0143C14.101 32.631 14.3558 32.2521 14.6172 31.8777C14.6262 31.8666 14.6329 31.8554 14.6418 31.8421C14.91 31.4565 15.1826 31.0755 15.4597 30.6988C15.5468 30.5807 15.634 30.4648 15.7212 30.3467C15.9133 30.086 16.1078 29.8275 16.3044 29.5712C16.4072 29.4375 16.5078 29.306 16.6106 29.1745C16.8005 28.9294 16.9927 28.6865 17.1871 28.4458C17.2877 28.321 17.3882 28.1962 17.4888 28.0714C17.7145 27.7929 17.9447 27.5187 18.1749 27.2469C18.1838 27.2357 18.1927 27.2268 18.1994 27.2157L42.4661 18.6225C42.3633 18.7451 42.2605 18.8654 42.1599 18.9902H42.1644Z" fill="#FAFAFA"/>
<g filter="url(#filter0_di_43_332)">
<path d="M44.257 59.6759L46.1761 60.1742C57.7867 67.1034 69.3973 74.0318 81.0078 80.9595C88.6692 68.767 110.627 55.9747 124.259 55.2251C136.167 54.5698 126.21 64.4277 125.638 67.5679C125.023 70.9395 133.335 78.7675 135.836 81.0899C141.106 85.9844 147.005 90.1786 152.597 94.6778C152.78 95.3216 149.24 107.201 148.891 107.793C146.679 111.53 139.756 104.179 137.164 103.422L121.471 106.08C115.29 115.161 112.518 130.819 111.232 141.634C110.755 145.647 111.618 152.126 108.461 148.409C106.926 146.603 105.531 141.123 99.0551 135.347C84.7761 122.607 57.8964 118.92 61.0324 99.7292C53.1785 95.9763 49.6925 91.0286 51.5658 81.7781C41.8252 76.9037 38.7809 70.1911 44.257 59.6759ZM47.3253 66.8022C46.6757 67.0693 47.415 71.8761 47.7371 72.4928C48.3936 73.7461 63.1245 82.5274 65.5291 83.9665C74.9888 89.624 84.7485 94.8095 94.2566 100.385C94.6455 101.803 96.2419 105.838 96.267 106.144C96.2917 106.422 96.397 106.645 96.0294 106.646C82.9606 99.4734 69.8917 92.2997 56.8227 85.1252L56.3684 85.2804C56.9049 94.0098 80.5517 104.374 88.4183 108.51C88.495 109.782 90.727 115.172 90.7305 115.548C90.734 115.78 90.7651 115.866 90.4765 115.865C82.7344 111.686 74.9916 107.508 67.248 103.329C66.2698 105.165 67.1488 107.07 68.1824 108.574C72.7083 115.145 100.625 126.695 107.162 134.927C109.369 125.293 108.722 115.27 104.546 106.551C103.772 104.937 99.9505 98.7408 98.8874 97.6986C96.7442 95.5929 53.8476 71.0378 47.3253 66.8022ZM118.391 60.9042C107.809 63.1338 93.1399 75.0531 89.5844 85.7484C96.943 90.8071 103.598 97.8312 112.355 100.514C120.716 103.073 127.703 99.5978 136.614 99.3507C138.05 99.8232 144.508 104.443 145.125 104.432C146.591 104.408 147.606 97.2792 147.646 95.9009C140.511 90.5007 128.856 80.7292 123.404 74.0797C121.045 71.2014 119.694 70.3609 121.211 66.2716C122.336 63.2382 127.282 59.0291 118.391 60.9021L118.391 60.9042Z" fill="white"/>
</g>
<defs>
<filter id="filter0_di_43_332" x="37.5535" y="55.1939" width="119.05" height="102.325" filterUnits="userSpaceOnUse" color-interpolation-filters="sRGB">
<feFlood flood-opacity="0" result="BackgroundImageFix"/>
<feColorMatrix in="SourceAlpha" type="matrix" values="0 0 0 0 0 0 0 0 0 0 0 0 0 0 0 0 0 0 127 0" result="hardAlpha"/>
<feOffset dy="4"/>
<feGaussianBlur stdDeviation="2"/>
<feComposite in2="hardAlpha" operator="out"/>
<feColorMatrix type="matrix" values="0 0 0 0 0 0 0 0 0 0 0 0 0 0 0 0 0 0 0.25 0"/>
<feBlend mode="normal" in2="BackgroundImageFix" result="effect1_dropShadow_43_332"/>
<feBlend mode="normal" in="SourceGraphic" in2="effect1_dropShadow_43_332" result="shape"/>
<feColorMatrix in="SourceAlpha" type="matrix" values="0 0 0 0 0 0 0 0 0 0 0 0 0 0 0 0 0 0 127 0" result="hardAlpha"/>
<feOffset dy="3"/>
<feGaussianBlur stdDeviation="1.5"/>
<feComposite in2="hardAlpha" operator="arithmetic" k2="-1" k3="1"/>
<feColorMatrix type="matrix" values="0 0 0 0 0 0 0 0 0 0 0 0 0 0 0 0 0 0 0.25 0"/>
<feBlend mode="normal" in2="shape" result="effect2_innerShadow_43_332"/>
</filter>
<linearGradient id="paint0_linear_43_332" x1="91.1464" y1="17.0358" x2="104.074" y2="162.438" gradientUnits="userSpaceOnUse">
<stop stop-color="white"/>
<stop offset="1" stop-color="#E0E0E0"/>
</linearGradient>
<linearGradient id="paint1_linear_43_332" x1="78.5711" y1="37.5443" x2="120.953" y2="163.052" gradientUnits="userSpaceOnUse">
<stop stop-color="#D1D1D1"/>
<stop offset="1" stop-color="#BCBCBC"/>
</linearGradient>
<linearGradient id="paint2_linear_43_332" x1="77.0226" y1="39.206" x2="119.137" y2="163.851" gradientUnits="userSpaceOnUse">
<stop stop-color="#21DBCF"/>
<stop offset="1" stop-color="#871AE5"/>
</linearGradient>
</defs>
</svg>
