<svg width="106" height="32" viewBox="0 0 106 32" fill="none" xmlns="http://www.w3.org/2000/svg">
<path d="M49.8805 21.4211V17.5309C49.8805 16.7906 49.7048 16.5647 49.0648 16.5647H45.2122V21.4086H43.2295V9.80075H49.0773C50.7213 9.80075 51.926 10.9427 51.926 12.5113V13.7788C51.926 14.7576 51.4867 15.2972 51.1479 15.5984C51.5118 15.8619 51.926 16.3764 51.926 17.28V21.4211H49.8805ZM49.8805 12.3608C49.8805 11.9466 49.5166 11.5576 49.1777 11.5576H45.2122V14.6447H48.9644C49.7048 14.6447 49.8805 14.4439 49.8805 13.7411V12.3608Z" fill="black"/>
<path d="M60.974 21.4211H57.4853C55.8414 21.4211 54.6367 20.2792 54.6367 18.7106V12.4988C54.6367 10.9302 55.8414 9.78821 57.4853 9.78821H60.974C62.6179 9.78821 63.8226 10.9302 63.8226 12.4988V18.7106C63.8226 20.2792 62.6179 21.4211 60.974 21.4211ZM61.8148 12.3984C61.8148 11.9968 61.4759 11.658 61.112 11.658H57.3473C56.9834 11.658 56.6446 11.9968 56.6446 12.3984V18.811C56.6446 19.2125 56.9834 19.5513 57.3473 19.5513H61.112C61.4759 19.5513 61.8148 19.2125 61.8148 18.811V12.3984Z" fill="black"/>
<path d="M66.5454 21.4211V9.80075H68.6285V19.5639H73.8364V21.4337H66.5454V21.4211Z" fill="black"/>
<path d="M76.1709 21.4211V9.80075H78.254V19.5639H83.4619V21.4337H76.1709V21.4211Z" fill="black"/>
<path d="M91.7189 21.4211H88.6318C86.9879 21.4211 85.7832 20.2792 85.7832 18.7106V9.80075H87.8663V18.8235C87.8663 19.2251 88.2052 19.5639 88.5691 19.5639H91.7691C92.133 19.5639 92.4718 19.2251 92.4718 18.8235V9.80075H94.555V18.7231C94.5675 20.2792 93.3628 21.4211 91.7189 21.4211Z" fill="black"/>
<path d="M105.021 14.3811L103.44 15.6988L105.059 16.8784C105.761 17.3929 105.975 17.8949 105.975 18.8988V21.4086H103.904V19.0745C103.904 18.4721 103.879 18.4094 103.54 18.171L101.457 16.6651L99.675 18.171C99.3613 18.4345 99.3111 18.5098 99.3111 19.1498V21.4086H97.2656V19.0745C97.2656 18.0706 97.4037 17.5561 98.1691 16.9035L99.8382 15.5231L98.2193 14.3184C97.617 13.9043 97.2782 13.4023 97.2782 12.3482V9.80076H99.3237V12.3106C99.3237 12.7121 99.3488 12.7874 99.5997 12.9882L101.808 14.5694L103.553 13.0635C103.854 12.8 103.929 12.6619 103.929 12.298V9.78821H106V12.4235C106.012 13.44 105.623 13.8792 105.021 14.3811Z" fill="black"/>
<path d="M16.6821 32C25.5187 32 32.6821 24.8366 32.6821 16C32.6821 7.16344 25.5187 0 16.6821 0C7.84557 0 0.682129 7.16344 0.682129 16C0.682129 24.8366 7.84557 32 16.6821 32Z" fill="#DBEF88"/>
<path d="M9.61719 7.74274H10.2697L26.1317 22.2745V24.2572H9.61719V7.74274Z" fill="black"/>
<path d="M22.1284 17.3302C22.5801 16.4392 22.8437 15.4227 22.8437 14.3435C22.8437 10.6918 19.8821 7.73019 16.2303 7.73019C14.9503 7.73019 13.7582 8.09412 12.7417 8.72157L22.1284 17.3302Z" fill="black"/>
</svg>
