<svg version="1.0" xmlns="http://www.w3.org/2000/svg" width="533.333" height="533.333" viewBox="0 0 400 400"><path d="M0 200v200h400V0H0v200zM233.5 96.5c11.4 2.3 26.9 7.7 36.6 12.6 8.9 4.4 23.4 13.8 22.6 14.5-.3.3-4.5-.6-9.3-2-35.7-10.2-73.4-11.5-98.4-3.5-16.8 5.5-30.4 15.9-36.2 27.7-4.4 8.9-5.1 20.6-1.8 29.4 5.2 14 16 25 34.9 35.5 12.4 6.9 18.2 11.8 21 17.6 4.2 8.8 1.6 16-7.4 20.6-4.6 2.4-5.9 2.6-18.5 2.5-12.5 0-14.3-.3-23.5-3.3-20.8-6.9-33.9-14.5-45.1-26.3C96.6 209.4 91 195.9 90.9 180c-.2-19 7.7-35.7 24.1-51.4 19.2-18.3 43-28.9 76.5-34 6.5-1 34.2.2 42 1.9zm5.1 51.4c18.4 3.8 38.2 13.6 50.5 24.9 28.3 26.1 28.6 63.2.9 93.5-14.5 15.8-40.4 29.5-67 35.3-6.9 1.5-12.5 1.9-29.5 1.8-20.1 0-21.5-.2-32.5-3.1-13.3-3.5-24.7-7.9-34-13-6.9-3.8-19.4-12.3-18.8-12.8.2-.2 5.7 1.2 12.3 3 40.9 11.2 79.2 10.9 104.7-.9 22.7-10.4 34.5-28.3 30.8-46.8-3.3-17.1-16.3-31.5-38.8-43.3-16.3-8.5-24.4-20.5-19.8-29.3 5.2-10 20.8-13.5 41.2-9.3z" fill="#1F5EFF"/></svg>
