<svg width="24" height="24" viewBox="0 0 24 24" fill="none" xmlns="http://www.w3.org/2000/svg">
<g clip-path="url(#clip0_3413_35829)">
<path d="M12.0087 0C18.6309 0 24 5.37781 24 12.0087C24 18.6309 18.6222 24 11.9826 24C5.35172 23.9913 -0.00869138 18.6048 1.05799e-05 11.9652C0.00871254 5.36041 5.38652 0 12.0087 0Z" fill="white"/>
<path d="M7.91025 4.16806C8.37145 3.95922 8.85876 3.80258 9.34607 3.67205C10.1728 3.4458 11.0168 3.31527 11.8696 3.27176C13.8624 3.16734 15.7681 3.53282 17.5694 4.39432C18.3091 4.74239 18.9965 5.16879 19.6405 5.6648C19.6579 5.6735 19.6753 5.69091 19.684 5.71701C19.5622 5.68221 19.4403 5.6387 19.3098 5.60389C18.2569 5.28192 17.1952 5.03826 16.1075 4.88163C15.2025 4.7511 14.2888 4.69888 13.3751 4.73369C12.3221 4.7772 11.2953 4.94254 10.312 5.31672C9.56362 5.60389 8.88487 5.98677 8.31924 6.5611C7.83193 7.05711 7.48385 7.63144 7.34462 8.3189C7.19669 9.03246 7.31852 9.71121 7.63179 10.3639C8.01467 11.1644 8.61511 11.7649 9.31126 12.2957C9.78987 12.6525 10.3207 12.9222 10.8428 13.2007C11.3301 13.4705 11.7739 13.8011 12.0785 14.2797C12.3395 14.6887 12.4353 15.1238 12.1742 15.5763C12.0176 15.8374 11.7739 16.0114 11.5042 16.1333C10.9733 16.3682 10.4164 16.403 9.85079 16.3769C9.68545 16.3682 9.52881 16.3595 9.36348 16.3247C9.10242 16.2638 8.85006 16.1681 8.60641 16.0636C8.11039 15.8635 7.63179 15.6285 7.17929 15.3588C6.70068 15.0629 6.24818 14.7409 5.83918 14.3581C5.22134 13.7924 4.73403 13.1398 4.38596 12.3827C4.15971 11.8867 4.01177 11.3646 3.95086 10.8251C3.92475 10.6075 3.90735 10.3987 3.90735 10.1811C3.92475 9.49366 4.04658 8.82361 4.29894 8.17967C4.60351 7.38779 5.05601 6.68293 5.61293 6.05639C6.13505 5.46466 6.72678 4.95124 7.37943 4.51614C7.56217 4.37691 7.72751 4.27249 7.91025 4.16806Z" fill="#0089CF"/>
<path d="M16.1682 8.03214C16.7251 8.19748 17.2559 8.43243 17.7694 8.70219C18.4481 9.06767 19.0746 9.51147 19.6142 10.0684C20.3799 10.8603 20.8934 11.7827 21.0587 12.8878C21.224 13.9582 21.0239 14.9676 20.554 15.9335C20.0145 17.0213 19.2052 17.8828 18.2393 18.5963C17.2037 19.3534 16.0551 19.8842 14.8194 20.241C14.0623 20.4585 13.2878 20.6065 12.496 20.6674C11.0514 20.7892 9.63302 20.6587 8.24071 20.2671C6.79619 19.8581 5.49089 19.1881 4.29872 18.283C4.29002 18.2743 4.28132 18.2656 4.26392 18.2482C4.51627 18.3266 4.74252 18.3962 4.97748 18.4571C5.99561 18.753 7.03114 18.9705 8.08408 19.1097C9.23273 19.2577 10.3814 19.2925 11.5388 19.1532C12.5917 19.0227 13.6011 18.7617 14.5322 18.2482C14.7585 18.1264 14.976 17.9698 15.1849 17.8218C15.3415 17.7435 15.4633 17.6217 15.5852 17.5086C16.0551 17.0996 16.4815 16.6558 16.8295 16.1424C17.2646 15.5245 17.604 14.8545 17.8477 14.1322C18.0304 13.584 18.1609 13.0271 18.2132 12.4527C18.3002 11.5825 18.2219 10.721 17.8825 9.90306C17.5518 9.09378 16.9949 8.47594 16.203 8.09305C16.1769 8.07565 16.1334 8.07565 16.1421 8.02344H16.1508C16.1682 8.02344 16.1682 8.03214 16.1682 8.03214Z" fill="#0089CF"/>
<path d="M16.1683 8.032C16.2205 8.11032 16.3075 8.11902 16.3858 8.16253C17.0037 8.4932 17.4562 8.98922 17.7781 9.59835C18.0044 10.0335 18.1349 10.4947 18.2132 10.982C18.2741 11.3561 18.2916 11.739 18.2741 12.1219C18.2567 12.5918 18.1784 13.053 18.0653 13.5142C17.8652 14.3148 17.5519 15.0632 17.1168 15.7593C16.7513 16.3511 16.3075 16.8819 15.8028 17.3605C15.6288 17.5258 15.446 17.6738 15.2459 17.813C15.2198 17.8304 15.2024 17.8391 15.185 17.8217C15.4286 17.6129 15.6723 17.4127 15.8811 17.1604C16.4119 16.5251 16.7078 15.8028 16.6904 14.9762C16.673 14.2626 16.4206 13.6187 16.0116 13.0356C15.5243 12.3308 14.8891 11.7999 14.1755 11.3474C13.7752 11.0951 13.3401 10.9036 12.9398 10.66C12.5135 10.3902 12.1219 10.0857 11.8608 9.64186C11.652 9.29378 11.5736 8.937 11.7303 8.54541C11.8608 8.22344 12.1132 8.0233 12.409 7.87536C12.7484 7.71003 13.1139 7.63171 13.4968 7.6056C14.4105 7.53599 15.2981 7.72743 16.1683 8.032C16.1683 8.0233 16.1683 8.0233 16.1683 8.032Z" fill="#0078B5"/>
<path d="M7.91002 4.16797C7.86651 4.22888 7.79689 4.24629 7.74468 4.2898C7.3618 4.53345 6.98761 4.79451 6.63083 5.09038C6.23924 5.42105 5.88246 5.77783 5.54309 6.16942C5.10799 6.68283 4.74251 7.23106 4.47275 7.84019C4.2552 8.3101 4.10726 8.79741 4.02024 9.31083C3.97673 9.58929 3.94193 9.87645 3.94193 10.1549C3.94193 10.8685 4.08116 11.5559 4.35092 12.2173C4.58587 12.7742 4.90784 13.2876 5.29943 13.7488C5.85636 14.4102 6.52641 14.9323 7.27478 15.3674C7.85781 15.7155 8.48435 15.9939 9.12829 16.2115C9.20661 16.2376 9.28493 16.2724 9.36325 16.3072C9.04127 16.2811 8.728 16.2028 8.41473 16.1158C7.41401 15.846 6.44809 15.4631 5.57789 14.8888C4.58587 14.2448 3.77659 13.4269 3.28058 12.3391C2.9325 11.582 2.80197 10.7815 2.87159 9.95477C2.97601 8.7626 3.45462 7.73577 4.19428 6.81336C4.92525 5.91706 5.83025 5.22961 6.84838 4.67268C7.18776 4.48124 7.53584 4.3072 7.91002 4.16797Z" fill="#0078B5"/>
</g>
<defs>
<clipPath id="clip0_3413_35829">
<rect width="24" height="24" fill="white"/>
</clipPath>
</defs>
</svg>
